<svg id="SvgjsSvg1006" width="1024.8271789550781" height="365.54412841796875" xmlns="http://www.w3.org/2000/svg" version="1.1" xmlns:xlink="http://www.w3.org/1999/xlink" xmlns:svgjs="http://svgjs.com/svgjs"><defs id="SvgjsDefs1007"><marker id="SvgjsMarker1096" markerWidth="16" markerHeight="12" refX="16" refY="6" viewBox="0 0 16 12" orient="auto" markerUnits="userSpaceOnUse" stroke-dasharray="0,0"><path id="SvgjsPath1097" d="M0,2 L14,6 L0,11 L0,2" fill="#323232" stroke="#323232" stroke-width="2"></path></marker><marker id="SvgjsMarker1116" markerWidth="16" markerHeight="12" refX="16" refY="6" viewBox="0 0 16 12" orient="auto" markerUnits="userSpaceOnUse" stroke-dasharray="0,0"><path id="SvgjsPath1117" d="M0,2 L14,6 L0,11 L0,2" fill="#323232" stroke="#323232" stroke-width="2"></path></marker><marker id="SvgjsMarker1128" markerWidth="16" markerHeight="12" refX="16" refY="6" viewBox="0 0 16 12" orient="auto" markerUnits="userSpaceOnUse" stroke-dasharray="0,0"><path id="SvgjsPath1129" d="M0,2 L14,6 L0,11 L0,2" fill="#323232" stroke="#323232" stroke-width="2"></path></marker><marker id="SvgjsMarker1140" markerWidth="16" markerHeight="12" refX="16" refY="6" viewBox="0 0 16 12" orient="auto" markerUnits="userSpaceOnUse" stroke-dasharray="0,0"><path id="SvgjsPath1141" d="M0,2 L14,6 L0,11 L0,2" fill="#323232" stroke="#323232" stroke-width="2"></path></marker></defs><g id="SvgjsG1008" transform="translate(860.8308868408203,82.0514907836914)"><path id="SvgjsPath1009" d="M 0 4Q 0 0 4 0L 95 0Q 99 0 99 4L 99 69Q 99 73 95 73L 4 73Q 0 73 0 69Z" stroke="rgba(50,50,50,1)" stroke-width="2" fill-opacity="1" fill="#ffffff"></path><g id="SvgjsG1010"><text id="SvgjsText1011" font-family="微软雅黑" text-anchor="middle" font-size="13px" width="79px" fill="#323232" font-weight="400" align="middle" anchor="middle" family="微软雅黑" size="13px" weight="400" font-style="" opacity="1" y="27.05" transform="rotate(0)"><tspan id="SvgjsTspan1012" dy="16" x="49.5"><tspan id="SvgjsTspan1013" style="text-decoration:;">Server</tspan></tspan></text></g></g><g id="SvgjsG1014" transform="translate(880.8308868408203,102.0514907836914)"><path id="SvgjsPath1015" d="M 0 4Q 0 0 4 0L 95 0Q 99 0 99 4L 99 69Q 99 73 95 73L 4 73Q 0 73 0 69Z" stroke="rgba(50,50,50,1)" stroke-width="2" fill-opacity="1" fill="#ffffff"></path><g id="SvgjsG1016"><text id="SvgjsText1017" font-family="微软雅黑" text-anchor="middle" font-size="13px" width="79px" fill="#323232" font-weight="400" align="middle" anchor="middle" family="微软雅黑" size="13px" weight="400" font-style="" opacity="1" y="27.05" transform="rotate(0)"><tspan id="SvgjsTspan1018" dy="16" x="49.5"><tspan id="SvgjsTspan1019" style="text-decoration:;">Server</tspan></tspan></text></g></g><g id="SvgjsG1020" transform="translate(900.8308868408203,122.0514907836914)"><path id="SvgjsPath1021" d="M 0 4Q 0 0 4 0L 95 0Q 99 0 99 4L 99 69Q 99 73 95 73L 4 73Q 0 73 0 69Z" stroke="rgba(50,50,50,1)" stroke-width="2" fill-opacity="1" fill="#ffffff"></path><g id="SvgjsG1022"><text id="SvgjsText1023" font-family="微软雅黑" text-anchor="middle" font-size="13px" width="79px" fill="#323232" font-weight="400" align="middle" anchor="middle" family="微软雅黑" size="13px" weight="400" font-style="" opacity="1" y="27.05" transform="rotate(0)"><tspan id="SvgjsTspan1024" dy="16" x="49.5"><tspan id="SvgjsTspan1025" style="text-decoration:;">Server</tspan></tspan></text></g></g><g id="SvgjsG1026" transform="translate(508.3308868408203,27.551490783691406)"><path id="SvgjsPath1027" d="M 0 0L 123 0L 139 16L 139 34L 0 34L 0 0Z" stroke="none" fill-opacity="1" fill="#ccffcc"></path><path id="SvgjsPath1028" d="M 123 0L 123 16L 139 16Z" stroke="none" fill-opacity="1" fill="#cdcdcd"></path><path id="SvgjsPath1029" d="M 0 0L 123 0L 139 16L 139 34L 0 34L 0 0Z" stroke="none" fill="none"></path><g id="SvgjsG1030"><text id="SvgjsText1031" font-family="微软雅黑" text-anchor="middle" font-size="13px" width="119px" fill="#323232" font-weight="400" align="middle" anchor="middle" family="微软雅黑" size="13px" weight="400" font-style="" opacity="1" y="7.55" transform="rotate(0)"><tspan id="SvgjsTspan1032" dy="16" x="69.5"><tspan id="SvgjsTspan1033" style="text-decoration:;">DNAT</tspan></tspan></text></g></g><g id="SvgjsG1034" transform="translate(546.8308868408203,89.0514907836914)"><path id="SvgjsPath1035" d="M 0 35C 0 -11.666666666666666 70 -11.666666666666666 70 35C 70 81.66666666666667 0 81.66666666666667 0 35Z" stroke="rgba(50,50,50,1)" stroke-width="2" fill-opacity="1" fill="#ffffff"></path><g id="SvgjsG1036"><text id="SvgjsText1037" font-family="微软雅黑" text-anchor="middle" font-size="13px" width="50px" fill="#323232" font-weight="400" align="middle" anchor="middle" family="微软雅黑" size="13px" weight="400" font-style="" opacity="1" y="17.55" transform="rotate(0)"><tspan id="SvgjsTspan1038" dy="16" x="35"><tspan id="SvgjsTspan1039" style="text-decoration:;">负载均</tspan></tspan><tspan id="SvgjsTspan1040" dy="16" x="35"><tspan id="SvgjsTspan1041" style="text-decoration:;">衡器</tspan></tspan></text></g></g><g id="SvgjsG1042" transform="translate(69.83088684082031,211.7867889404297)"><path id="SvgjsPath1043" d="M 0 0L 100 0L 100 49L 0 49Z" stroke="rgba(50,50,50,1)" stroke-width="2" fill-opacity="1" fill="#ffffff"></path><g id="SvgjsG1044"><text id="SvgjsText1045" font-family="微软雅黑" text-anchor="middle" font-size="13px" width="80px" fill="#323232" font-weight="400" align="middle" anchor="middle" family="微软雅黑" size="13px" weight="400" font-style="" opacity="1" y="15.05" transform="rotate(0)"><tspan id="SvgjsTspan1046" dy="16" x="50"><tspan id="SvgjsTspan1047" style="text-decoration:;">User</tspan></tspan></text></g></g><g id="SvgjsG1048" transform="translate(89.83088684082031,231.7867889404297)"><path id="SvgjsPath1049" d="M 0 0L 100 0L 100 49L 0 49Z" stroke="rgba(50,50,50,1)" stroke-width="2" fill-opacity="1" fill="#ffffff"></path><g id="SvgjsG1050"><text id="SvgjsText1051" font-family="微软雅黑" text-anchor="middle" font-size="13px" width="80px" fill="#323232" font-weight="400" align="middle" anchor="middle" family="微软雅黑" size="13px" weight="400" font-style="" opacity="1" y="15.05" transform="rotate(0)"><tspan id="SvgjsTspan1052" dy="16" x="50"><tspan id="SvgjsTspan1053" style="text-decoration:;">User</tspan></tspan></text></g></g><g id="SvgjsG1054" transform="translate(109.83088684082031,251.7867889404297)"><path id="SvgjsPath1055" d="M 0 0L 100 0L 100 49L 0 49Z" stroke="rgba(50,50,50,1)" stroke-width="2" fill-opacity="1" fill="#ffffff"></path><g id="SvgjsG1056"><text id="SvgjsText1057" font-family="微软雅黑" text-anchor="middle" font-size="13px" width="80px" fill="#323232" font-weight="400" align="middle" anchor="middle" family="微软雅黑" size="13px" weight="400" font-style="" opacity="1" y="15.05" transform="rotate(0)"><tspan id="SvgjsTspan1058" dy="16" x="50"><tspan id="SvgjsTspan1059" style="text-decoration:;">Client</tspan></tspan></text></g></g><g id="SvgjsG1060" transform="translate(57.33088684082031,190.7867889404297)"><path id="SvgjsPath1061" d="M 6.51 0L 118.49 0L 125 15.5L 118.49 31L 6.51 31L 0 15.5L 6.51 0Z" stroke="rgba(50,50,50,1)" stroke-width="2" fill-opacity="1" fill="#cce5ff"></path><g id="SvgjsG1062"><text id="SvgjsText1063" font-family="微软雅黑" text-anchor="middle" font-size="13px" width="105px" fill="#323232" font-weight="400" align="middle" anchor="middle" family="微软雅黑" size="13px" weight="400" font-style="" opacity="1" y="6.05" transform="rotate(0)"><tspan id="SvgjsTspan1064" dy="16" x="62.5"><tspan id="SvgjsTspan1065" style="text-decoration:;">8.8.8.8</tspan></tspan></text></g></g><g id="SvgjsG1066" transform="translate(533.3308868408203,145.5514907836914)"><path id="SvgjsPath1067" d="M 7.35 0L 89.65 0L 97 17.5L 89.65 35L 7.35 35L 0 17.5L 7.35 0Z" stroke="rgba(50,50,50,1)" stroke-width="2" fill-opacity="1" fill="#cce5ff"></path><g id="SvgjsG1068"><text id="SvgjsText1069" font-family="微软雅黑" text-anchor="middle" font-size="13px" width="77px" fill="#323232" font-weight="400" align="middle" anchor="middle" family="微软雅黑" size="13px" weight="400" font-style="" opacity="1" y="8.05" transform="rotate(0)"><tspan id="SvgjsTspan1070" dy="16" x="48.5"><tspan id="SvgjsTspan1071" style="text-decoration:;">6.6.6.6</tspan></tspan></text></g></g><g id="SvgjsG1072" transform="translate(772.8308868408203,100.28678894042969)"><path id="SvgjsPath1073" d="M 7.35 0L 89.65 0L 97 17.5L 89.65 35L 7.35 35L 0 17.5L 7.35 0Z" stroke="rgba(50,50,50,1)" stroke-width="2" fill-opacity="1" fill="#cce5ff"></path><g id="SvgjsG1074"><text id="SvgjsText1075" font-family="微软雅黑" text-anchor="middle" font-size="13px" width="77px" fill="#323232" font-weight="400" align="middle" anchor="middle" family="微软雅黑" size="13px" weight="400" font-style="" opacity="1" y="8.05" transform="rotate(0)"><tspan id="SvgjsTspan1076" dy="16" x="48.5"><tspan id="SvgjsTspan1077" style="text-decoration:;">7.7.7.7</tspan></tspan></text></g></g><g id="SvgjsG1078" transform="translate(25.007354736328125,183.0514907836914)"><path id="SvgjsPath1079" d="M 0 0L 40 0L 56 16L 56 20L 0 20L 0 0Z" stroke="none" fill-opacity="1" fill="#ffffaa"></path><path id="SvgjsPath1080" d="M 40 0L 40 16L 56 16Z" stroke="none" fill-opacity="1" fill="#cdcdcd"></path><path id="SvgjsPath1081" d="M 0 0L 40 0L 56 16L 56 20L 0 20L 0 0Z" stroke="none" fill="none"></path><g id="SvgjsG1082"><text id="SvgjsText1083" font-family="微软雅黑" text-anchor="middle" font-size="13px" width="36px" fill="#323232" font-weight="400" align="middle" anchor="middle" family="微软雅黑" size="13px" weight="400" font-style="" opacity="1" y="0.55" transform="rotate(0)"><tspan id="SvgjsTspan1084" dy="16" x="28"><tspan id="SvgjsTspan1085" style="text-decoration:;">CIP</tspan></tspan></text></g></g><g id="SvgjsG1086" transform="translate(496.8308868408203,138.0514907836914)"><path id="SvgjsPath1087" d="M 0 0L 40 0L 56 16L 56 20L 0 20L 0 0Z" stroke="none" fill-opacity="1" fill="#ffffaa"></path><path id="SvgjsPath1088" d="M 40 0L 40 16L 56 16Z" stroke="none" fill-opacity="1" fill="#cdcdcd"></path><path id="SvgjsPath1089" d="M 0 0L 40 0L 56 16L 56 20L 0 20L 0 0Z" stroke="none" fill="none"></path><g id="SvgjsG1090"><text id="SvgjsText1091" font-family="微软雅黑" text-anchor="middle" font-size="13px" width="36px" fill="#323232" font-weight="400" align="middle" anchor="middle" family="微软雅黑" size="13px" weight="400" font-style="" opacity="1" y="0.55" transform="rotate(0)"><tspan id="SvgjsTspan1092" dy="16" x="28"><tspan id="SvgjsTspan1093" style="text-decoration:;">VIP</tspan></tspan></text></g></g><g id="SvgjsG1094"><path id="SvgjsPath1095" d="M119.83088684082031 190.7867889404297C 119.83088684082037 25.01514033242762 370.07768206204446 191.8374354733137 533.3308868408203 163.0514907836914" stroke="#323232" stroke-width="2" fill="none" marker-end="url(#SvgjsMarker1096)"></path></g><g id="SvgjsG1098" transform="translate(232.3308868408203,111.5514907836914)"><path id="SvgjsPath1099" d="M 0 0L 71.67646789550781 0L 87.67646789550781 16L 87.67646789550781 20L 0 20L 0 0Z" stroke="none" fill-opacity="1" fill="#ffffaa"></path><path id="SvgjsPath1100" d="M 71.67646789550781 0L 71.67646789550781 16L 87.67646789550781 16Z" stroke="none" fill-opacity="1" fill="#cdcdcd"></path><path id="SvgjsPath1101" d="M 0 0L 71.67646789550781 0L 87.67646789550781 16L 87.67646789550781 20L 0 20L 0 0Z" stroke="none" fill="none"></path><g id="SvgjsG1102"><text id="SvgjsText1103" font-family="微软雅黑" text-anchor="start" font-size="13px" width="68px" fill="#323232" font-weight="400" align="middle" anchor="start" family="微软雅黑" size="13px" weight="400" font-style="" opacity="1" y="0.55" transform="rotate(0)"><tspan id="SvgjsTspan1104" dy="16" x="10"><tspan id="SvgjsTspan1105" style="text-decoration:;">CIP -&gt; VIP</tspan></tspan></text></g></g><g id="SvgjsG1106" transform="translate(793.3308868408203,89.0514907836914)"><path id="SvgjsPath1107" d="M 0 0L 40 0L 56 16L 56 20L 0 20L 0 0Z" stroke="none" fill-opacity="1" fill="#ffffaa"></path><path id="SvgjsPath1108" d="M 40 0L 40 16L 56 16Z" stroke="none" fill-opacity="1" fill="#cdcdcd"></path><path id="SvgjsPath1109" d="M 0 0L 40 0L 56 16L 56 20L 0 20L 0 0Z" stroke="none" fill="none"></path><g id="SvgjsG1110"><text id="SvgjsText1111" font-family="微软雅黑" text-anchor="middle" font-size="13px" width="36px" fill="#323232" font-weight="400" align="middle" anchor="middle" family="微软雅黑" size="13px" weight="400" font-style="" opacity="1" y="0.55" transform="rotate(0)"><tspan id="SvgjsTspan1112" dy="16" x="28"><tspan id="SvgjsTspan1113" style="text-decoration:;">RIP</tspan></tspan></text></g></g><g id="SvgjsG1114"><path id="SvgjsPath1115" d="M630.3308868408203 163.0514907836914C 689.228836798749 173.43678846969124 713.9329368828917 128.17208662642952 772.8308868408203 117.78678894042969" stroke="#323232" stroke-width="2" fill="none" marker-end="url(#SvgjsMarker1116)"></path></g><g id="SvgjsG1118" transform="translate(671.3308868408203,135.2867889404297)"><path id="SvgjsPath1119" d="M 0 0L 71.67646789550781 0L 87.67646789550781 16L 87.67646789550781 20L 0 20L 0 0Z" stroke="none" fill-opacity="1" fill="#ffffaa"></path><path id="SvgjsPath1120" d="M 71.67646789550781 0L 71.67646789550781 16L 87.67646789550781 16Z" stroke="none" fill-opacity="1" fill="#cdcdcd"></path><path id="SvgjsPath1121" d="M 0 0L 71.67646789550781 0L 87.67646789550781 16L 87.67646789550781 20L 0 20L 0 0Z" stroke="none" fill="none"></path><g id="SvgjsG1122"><text id="SvgjsText1123" font-family="微软雅黑" text-anchor="start" font-size="13px" width="68px" fill="#323232" font-weight="400" align="middle" anchor="start" family="微软雅黑" size="13px" weight="400" font-style="" opacity="1" y="0.55" transform="rotate(0)"><tspan id="SvgjsTspan1124" dy="16" x="10"><tspan id="SvgjsTspan1125" style="text-decoration:;">CIP -&gt; RIP</tspan></tspan></text></g></g><g id="SvgjsG1126"><path id="SvgjsPath1127" d="M821.3308868408203 135.2867889404297C 821.3308868408203 232.7827525352037 581.8308868408203 278.04745437846543 581.8308868408203 180.5514907836914" stroke="#323232" stroke-width="2" fill="none" marker-end="url(#SvgjsMarker1128)"></path></g><g id="SvgjsG1130" transform="translate(677.3308868408203,221.7867889404297)"><path id="SvgjsPath1131" d="M 0 0L 71.67646789550781 0L 87.67646789550781 16L 87.67646789550781 20L 0 20L 0 0Z" stroke="none" fill-opacity="1" fill="#e6ffcc"></path><path id="SvgjsPath1132" d="M 71.67646789550781 0L 71.67646789550781 16L 87.67646789550781 16Z" stroke="none" fill-opacity="1" fill="#cdcdcd"></path><path id="SvgjsPath1133" d="M 0 0L 71.67646789550781 0L 87.67646789550781 16L 87.67646789550781 20L 0 20L 0 0Z" stroke="none" fill="none"></path><g id="SvgjsG1134"><text id="SvgjsText1135" font-family="微软雅黑" text-anchor="start" font-size="13px" width="68px" fill="#323232" font-weight="400" align="middle" anchor="start" family="微软雅黑" size="13px" weight="400" font-style="" opacity="1" y="0.55" transform="rotate(0)"><tspan id="SvgjsTspan1136" dy="16" x="10"><tspan id="SvgjsTspan1137" style="text-decoration:;">RIP -&gt; CIP</tspan></tspan></text></g></g><g id="SvgjsG1138"><path id="SvgjsPath1139" d="M581.8308868408203 180.5514907836914C 581.8308868408203 340.68271475763913 340.0293577096984 234.09328417108077 182.3308868408203 206.2867889404297" stroke="#323232" stroke-width="2" fill="none" marker-end="url(#SvgjsMarker1140)"></path></g><g id="SvgjsG1142" transform="translate(399.3308868408203,251.7867889404297)"><path id="SvgjsPath1143" d="M 0 0L 71.67646789550781 0L 87.67646789550781 16L 87.67646789550781 20L 0 20L 0 0Z" stroke="none" fill-opacity="1" fill="#e6ffcc"></path><path id="SvgjsPath1144" d="M 71.67646789550781 0L 71.67646789550781 16L 87.67646789550781 16Z" stroke="none" fill-opacity="1" fill="#cdcdcd"></path><path id="SvgjsPath1145" d="M 0 0L 71.67646789550781 0L 87.67646789550781 16L 87.67646789550781 20L 0 20L 0 0Z" stroke="none" fill="none"></path><g id="SvgjsG1146"><text id="SvgjsText1147" font-family="微软雅黑" text-anchor="start" font-size="13px" width="68px" fill="#323232" font-weight="400" align="middle" anchor="start" family="微软雅黑" size="13px" weight="400" font-style="" opacity="1" y="0.55" transform="rotate(0)"><tspan id="SvgjsTspan1148" dy="16" x="10"><tspan id="SvgjsTspan1149" style="text-decoration:;">VIP -&gt; CIP</tspan></tspan></text></g></g></svg>