<svg id="SvgjsSvg1150" width="1024.8272094726562" height="514.4926300048828" xmlns="http://www.w3.org/2000/svg" version="1.1" xmlns:xlink="http://www.w3.org/1999/xlink" xmlns:svgjs="http://svgjs.com/svgjs"><defs id="SvgjsDefs1151"><marker id="SvgjsMarker1240" markerWidth="16" markerHeight="12" refX="16" refY="6" viewBox="0 0 16 12" orient="auto" markerUnits="userSpaceOnUse" stroke-dasharray="0,0"><path id="SvgjsPath1241" d="M0,2 L14,6 L0,11 L0,2" fill="#323232" stroke="#323232" stroke-width="2"></path></marker><marker id="SvgjsMarker1260" markerWidth="16" markerHeight="12" refX="16" refY="6" viewBox="0 0 16 12" orient="auto" markerUnits="userSpaceOnUse" stroke-dasharray="0,0"><path id="SvgjsPath1261" d="M0,2 L14,6 L0,11 L0,2" fill="#323232" stroke="#323232" stroke-width="2"></path></marker><marker id="SvgjsMarker1283" markerWidth="16" markerHeight="12" refX="16" refY="6" viewBox="0 0 16 12" orient="auto" markerUnits="userSpaceOnUse" stroke-dasharray="0,0"><path id="SvgjsPath1284" d="M0,2 L14,6 L0,11 L0,2" fill="#323232" stroke="#323232" stroke-width="2"></path></marker></defs><g id="SvgjsG1152" transform="translate(860.8309020996094,79.50736236572266)"><path id="SvgjsPath1153" d="M 0 4Q 0 0 4 0L 95 0Q 99 0 99 4L 99 69Q 99 73 95 73L 4 73Q 0 73 0 69Z" stroke="rgba(50,50,50,1)" stroke-width="2" fill-opacity="1" fill="#ffffff"></path><g id="SvgjsG1154"><text id="SvgjsText1155" font-family="微软雅黑" text-anchor="middle" font-size="13px" width="79px" fill="#323232" font-weight="400" align="middle" anchor="middle" family="微软雅黑" size="13px" weight="400" font-style="" opacity="1" y="27.05" transform="rotate(0)"><tspan id="SvgjsTspan1156" dy="16" x="49.5"><tspan id="SvgjsTspan1157" style="text-decoration:;">Server</tspan></tspan></text></g></g><g id="SvgjsG1158" transform="translate(880.8309020996094,99.50736236572266)"><path id="SvgjsPath1159" d="M 0 4Q 0 0 4 0L 95 0Q 99 0 99 4L 99 69Q 99 73 95 73L 4 73Q 0 73 0 69Z" stroke="rgba(50,50,50,1)" stroke-width="2" fill-opacity="1" fill="#ffffff"></path><g id="SvgjsG1160"><text id="SvgjsText1161" font-family="微软雅黑" text-anchor="middle" font-size="13px" width="79px" fill="#323232" font-weight="400" align="middle" anchor="middle" family="微软雅黑" size="13px" weight="400" font-style="" opacity="1" y="27.05" transform="rotate(0)"><tspan id="SvgjsTspan1162" dy="16" x="49.5"><tspan id="SvgjsTspan1163" style="text-decoration:;">Server</tspan></tspan></text></g></g><g id="SvgjsG1164" transform="translate(900.8309020996094,119.50736236572266)"><path id="SvgjsPath1165" d="M 0 4Q 0 0 4 0L 95 0Q 99 0 99 4L 99 69Q 99 73 95 73L 4 73Q 0 73 0 69Z" stroke="rgba(50,50,50,1)" stroke-width="2" fill-opacity="1" fill="#ffffff"></path><g id="SvgjsG1166"><text id="SvgjsText1167" font-family="微软雅黑" text-anchor="middle" font-size="13px" width="79px" fill="#323232" font-weight="400" align="middle" anchor="middle" family="微软雅黑" size="13px" weight="400" font-style="" opacity="1" y="27.05" transform="rotate(0)"><tspan id="SvgjsTspan1168" dy="16" x="49.5"><tspan id="SvgjsTspan1169" style="text-decoration:;">Server</tspan></tspan></text></g></g><g id="SvgjsG1170" transform="translate(508.3309020996094,25.007362365722656)"><path id="SvgjsPath1171" d="M 0 0L 123 0L 139 16L 139 34L 0 34L 0 0Z" stroke="none" fill-opacity="1" fill="#ccffcc"></path><path id="SvgjsPath1172" d="M 123 0L 123 16L 139 16Z" stroke="none" fill-opacity="1" fill="#cdcdcd"></path><path id="SvgjsPath1173" d="M 0 0L 123 0L 139 16L 139 34L 0 34L 0 0Z" stroke="none" fill="none"></path><g id="SvgjsG1174"><text id="SvgjsText1175" font-family="微软雅黑" text-anchor="middle" font-size="13px" width="119px" fill="#323232" font-weight="400" align="middle" anchor="middle" family="微软雅黑" size="13px" weight="400" font-style="" opacity="1" y="7.55" transform="rotate(0)"><tspan id="SvgjsTspan1176" dy="16" x="69.5"><tspan id="SvgjsTspan1177" style="text-decoration:;">DR</tspan></tspan></text></g></g><g id="SvgjsG1178" transform="translate(426.4191360473633,90.25736236572266)"><path id="SvgjsPath1179" d="M 0 35C 0 -11.666666666666666 70 -11.666666666666666 70 35C 70 81.66666666666667 0 81.66666666666667 0 35Z" stroke="rgba(50,50,50,1)" stroke-width="2" fill-opacity="1" fill="#ffffff"></path><g id="SvgjsG1180"><text id="SvgjsText1181" font-family="微软雅黑" text-anchor="middle" font-size="13px" width="50px" fill="#323232" font-weight="400" align="middle" anchor="middle" family="微软雅黑" size="13px" weight="400" font-style="" opacity="1" y="17.55" transform="rotate(0)"><tspan id="SvgjsTspan1182" dy="16" x="35"><tspan id="SvgjsTspan1183" style="text-decoration:;">负载均</tspan></tspan><tspan id="SvgjsTspan1184" dy="16" x="35"><tspan id="SvgjsTspan1185" style="text-decoration:;">衡器</tspan></tspan></text></g></g><g id="SvgjsG1186" transform="translate(69.83090209960938,209.24266052246094)"><path id="SvgjsPath1187" d="M 0 0L 100 0L 100 49L 0 49Z" stroke="rgba(50,50,50,1)" stroke-width="2" fill-opacity="1" fill="#ffffff"></path><g id="SvgjsG1188"><text id="SvgjsText1189" font-family="微软雅黑" text-anchor="middle" font-size="13px" width="80px" fill="#323232" font-weight="400" align="middle" anchor="middle" family="微软雅黑" size="13px" weight="400" font-style="" opacity="1" y="15.05" transform="rotate(0)"><tspan id="SvgjsTspan1190" dy="16" x="50"><tspan id="SvgjsTspan1191" style="text-decoration:;">User</tspan></tspan></text></g></g><g id="SvgjsG1192" transform="translate(89.83090209960938,229.24266052246094)"><path id="SvgjsPath1193" d="M 0 0L 100 0L 100 49L 0 49Z" stroke="rgba(50,50,50,1)" stroke-width="2" fill-opacity="1" fill="#ffffff"></path><g id="SvgjsG1194"><text id="SvgjsText1195" font-family="微软雅黑" text-anchor="middle" font-size="13px" width="80px" fill="#323232" font-weight="400" align="middle" anchor="middle" family="微软雅黑" size="13px" weight="400" font-style="" opacity="1" y="15.05" transform="rotate(0)"><tspan id="SvgjsTspan1196" dy="16" x="50"><tspan id="SvgjsTspan1197" style="text-decoration:;">User</tspan></tspan></text></g></g><g id="SvgjsG1198" transform="translate(109.83090209960938,249.24266052246094)"><path id="SvgjsPath1199" d="M 0 0L 100 0L 100 49L 0 49Z" stroke="rgba(50,50,50,1)" stroke-width="2" fill-opacity="1" fill="#ffffff"></path><g id="SvgjsG1200"><text id="SvgjsText1201" font-family="微软雅黑" text-anchor="middle" font-size="13px" width="80px" fill="#323232" font-weight="400" align="middle" anchor="middle" family="微软雅黑" size="13px" weight="400" font-style="" opacity="1" y="15.05" transform="rotate(0)"><tspan id="SvgjsTspan1202" dy="16" x="50"><tspan id="SvgjsTspan1203" style="text-decoration:;">Client</tspan></tspan></text></g></g><g id="SvgjsG1204" transform="translate(57.330902099609375,188.24266052246094)"><path id="SvgjsPath1205" d="M 6.51 0L 118.49 0L 125 15.5L 118.49 31L 6.51 31L 0 15.5L 6.51 0Z" stroke="rgba(50,50,50,1)" stroke-width="2" fill-opacity="1" fill="#cce5ff"></path><g id="SvgjsG1206"><text id="SvgjsText1207" font-family="微软雅黑" text-anchor="middle" font-size="13px" width="105px" fill="#323232" font-weight="400" align="middle" anchor="middle" family="微软雅黑" size="13px" weight="400" font-style="" opacity="1" y="6.05" transform="rotate(0)"><tspan id="SvgjsTspan1208" dy="16" x="62.5"><tspan id="SvgjsTspan1209" style="text-decoration:;">8.8.8.8</tspan></tspan></text></g></g><g id="SvgjsG1210" transform="translate(412.9191360473633,146.75736236572266)"><path id="SvgjsPath1211" d="M 7.35 0L 89.65 0L 97 17.5L 89.65 35L 7.35 35L 0 17.5L 7.35 0Z" stroke="rgba(50,50,50,1)" stroke-width="2" fill-opacity="1" fill="#cce5ff"></path><g id="SvgjsG1212"><text id="SvgjsText1213" font-family="微软雅黑" text-anchor="middle" font-size="13px" width="77px" fill="#323232" font-weight="400" align="middle" anchor="middle" family="微软雅黑" size="13px" weight="400" font-style="" opacity="1" y="8.05" transform="rotate(0)"><tspan id="SvgjsTspan1214" dy="16" x="48.5"><tspan id="SvgjsTspan1215" style="text-decoration:;">6.6.6.6</tspan></tspan></text></g></g><g id="SvgjsG1216" transform="translate(772.8309020996094,97.74266052246094)"><path id="SvgjsPath1217" d="M 7.35 0L 89.65 0L 97 17.5L 89.65 35L 7.35 35L 0 17.5L 7.35 0Z" stroke="rgba(50,50,50,1)" stroke-width="2" fill-opacity="1" fill="#cce5ff"></path><g id="SvgjsG1218"><text id="SvgjsText1219" font-family="微软雅黑" text-anchor="middle" font-size="13px" width="77px" fill="#323232" font-weight="400" align="middle" anchor="middle" family="微软雅黑" size="13px" weight="400" font-style="" opacity="1" y="8.05" transform="rotate(0)"><tspan id="SvgjsTspan1220" dy="16" x="48.5"><tspan id="SvgjsTspan1221" style="text-decoration:;">7.7.7.7</tspan></tspan></text></g></g><g id="SvgjsG1222" transform="translate(25.007369995117188,180.50736236572266)"><path id="SvgjsPath1223" d="M 0 0L 40 0L 56 16L 56 20L 0 20L 0 0Z" stroke="none" fill-opacity="1" fill="#ffffaa"></path><path id="SvgjsPath1224" d="M 40 0L 40 16L 56 16Z" stroke="none" fill-opacity="1" fill="#cdcdcd"></path><path id="SvgjsPath1225" d="M 0 0L 40 0L 56 16L 56 20L 0 20L 0 0Z" stroke="none" fill="none"></path><g id="SvgjsG1226"><text id="SvgjsText1227" font-family="微软雅黑" text-anchor="middle" font-size="13px" width="36px" fill="#323232" font-weight="400" align="middle" anchor="middle" family="微软雅黑" size="13px" weight="400" font-style="" opacity="1" y="0.55" transform="rotate(0)"><tspan id="SvgjsTspan1228" dy="16" x="28"><tspan id="SvgjsTspan1229" style="text-decoration:;">CIP</tspan></tspan></text></g></g><g id="SvgjsG1230" transform="translate(376.4191360473633,139.25736236572266)"><path id="SvgjsPath1231" d="M 0 0L 40 0L 56 16L 56 20L 0 20L 0 0Z" stroke="none" fill-opacity="1" fill="#ffffaa"></path><path id="SvgjsPath1232" d="M 40 0L 40 16L 56 16Z" stroke="none" fill-opacity="1" fill="#cdcdcd"></path><path id="SvgjsPath1233" d="M 0 0L 40 0L 56 16L 56 20L 0 20L 0 0Z" stroke="none" fill="none"></path><g id="SvgjsG1234"><text id="SvgjsText1235" font-family="微软雅黑" text-anchor="middle" font-size="13px" width="36px" fill="#323232" font-weight="400" align="middle" anchor="middle" family="微软雅黑" size="13px" weight="400" font-style="" opacity="1" y="0.55" transform="rotate(0)"><tspan id="SvgjsTspan1236" dy="16" x="28"><tspan id="SvgjsTspan1237" style="text-decoration:;">VIP</tspan></tspan></text></g></g><g id="SvgjsG1238"><path id="SvgjsPath1239" d="M119.83090209960938 188.24266052246094C 119.83090209960943 70.61544774835431 297.0789449422065 184.68311350798655 412.9191360473633 164.25736236572266" stroke="#323232" stroke-width="2" fill="none" marker-end="url(#SvgjsMarker1240)"></path></g><g id="SvgjsG1242" transform="translate(221.33090209960938,135.50736236572266)"><path id="SvgjsPath1243" d="M 0 0L 71.67646789550781 0L 87.67646789550781 16L 87.67646789550781 20L 0 20L 0 0Z" stroke="none" fill-opacity="1" fill="#ffffaa"></path><path id="SvgjsPath1244" d="M 71.67646789550781 0L 71.67646789550781 16L 87.67646789550781 16Z" stroke="none" fill-opacity="1" fill="#cdcdcd"></path><path id="SvgjsPath1245" d="M 0 0L 71.67646789550781 0L 87.67646789550781 16L 87.67646789550781 20L 0 20L 0 0Z" stroke="none" fill="none"></path><g id="SvgjsG1246"><text id="SvgjsText1247" font-family="微软雅黑" text-anchor="start" font-size="13px" width="68px" fill="#323232" font-weight="400" align="middle" anchor="start" family="微软雅黑" size="13px" weight="400" font-style="" opacity="1" y="0.55" transform="rotate(0)"><tspan id="SvgjsTspan1248" dy="16" x="10"><tspan id="SvgjsTspan1249" style="text-decoration:;">CIP -&gt; VIP</tspan></tspan></text></g></g><g id="SvgjsG1250" transform="translate(793.3309020996094,86.50736236572266)"><path id="SvgjsPath1251" d="M 0 0L 40 0L 56 16L 56 20L 0 20L 0 0Z" stroke="none" fill-opacity="1" fill="#ffffaa"></path><path id="SvgjsPath1252" d="M 40 0L 40 16L 56 16Z" stroke="none" fill-opacity="1" fill="#cdcdcd"></path><path id="SvgjsPath1253" d="M 0 0L 40 0L 56 16L 56 20L 0 20L 0 0Z" stroke="none" fill="none"></path><g id="SvgjsG1254"><text id="SvgjsText1255" font-family="微软雅黑" text-anchor="middle" font-size="13px" width="36px" fill="#323232" font-weight="400" align="middle" anchor="middle" family="微软雅黑" size="13px" weight="400" font-style="" opacity="1" y="0.55" transform="rotate(0)"><tspan id="SvgjsTspan1256" dy="16" x="28"><tspan id="SvgjsTspan1257" style="text-decoration:;">RIP</tspan></tspan></text></g></g><g id="SvgjsG1258"><path id="SvgjsPath1259" d="M509.9191360473633 164.25736236572266C 615.2705813635339 182.83366463159598 667.4794567834388 133.81896278833426 772.8309020996094 115.24266052246094" stroke="#323232" stroke-width="2" fill="none" marker-end="url(#SvgjsMarker1260)"></path></g><g id="SvgjsG1262" transform="translate(590.3309020996094,117.74266052246094)"><path id="SvgjsPath1263" d="M 0 0L 81.61764526367188 0L 97.61764526367188 16L 97.61764526367188 63.02940368652344L 0 63.02940368652344L 0 0Z" stroke="none" fill-opacity="1" fill="#ffffaa"></path><path id="SvgjsPath1264" d="M 81.61764526367188 0L 81.61764526367188 16L 97.61764526367188 16Z" stroke="none" fill-opacity="1" fill="#cdcdcd"></path><path id="SvgjsPath1265" d="M 0 0L 81.61764526367188 0L 97.61764526367188 16L 97.61764526367188 63.02940368652344L 0 63.02940368652344L 0 0Z" stroke="none" fill="none"></path><g id="SvgjsG1266"><text id="SvgjsText1267" font-family="微软雅黑" text-anchor="start" font-size="13px" width="78px" fill="#323232" font-weight="400" align="middle" anchor="start" family="微软雅黑" size="13px" weight="400" font-style="" opacity="1" y="14.06470184326172" transform="rotate(0)"><tspan id="SvgjsTspan1268" dy="16" x="10"><tspan id="SvgjsTspan1269" style="text-decoration:;">CIP -&gt; V</tspan><tspan id="SvgjsTspan1270" style="text-decoration:;font-size: inherit;">IP</tspan></tspan><tspan id="SvgjsTspan1271" dy="16" x="10"><tspan id="SvgjsTspan1272" style="text-decoration:;font-size: inherit;">MAC@RIP</tspan></tspan></text></g></g><g id="SvgjsG1273" transform="translate(929.8309020996094,164.50736236572266)"><path id="SvgjsPath1274" d="M 0 0L 34 0L 50 16L 50 20L 0 20L 0 0Z" stroke="none" fill-opacity="1" fill="#ccccff"></path><path id="SvgjsPath1275" d="M 34 0L 34 16L 50 16Z" stroke="none" fill-opacity="1" fill="#cdcdcd"></path><path id="SvgjsPath1276" d="M 0 0L 34 0L 50 16L 50 20L 0 20L 0 0Z" stroke="none" fill="none"></path><g id="SvgjsG1277"><text id="SvgjsText1278" font-family="微软雅黑" text-anchor="middle" font-size="13px" width="30px" fill="#323232" font-weight="400" align="middle" anchor="middle" family="微软雅黑" size="13px" weight="400" font-style="" opacity="1" y="0.55" transform="rotate(0)"><tspan id="SvgjsTspan1279" dy="16" x="25"><tspan id="SvgjsTspan1280" style="text-decoration:;">VIP</tspan></tspan></text></g></g><g id="SvgjsG1281"><path id="SvgjsPath1282" d="M950.3309020996094 192.50736236572266C 950.3309020996094 490.4843879677953 507.80792770168205 273.7426605224609 209.83090209960938 273.74266052246094" stroke="#323232" stroke-width="2" fill="none" marker-end="url(#SvgjsMarker1283)"></path></g><g id="SvgjsG1285" transform="translate(491.3309020996094,307.50736236572266)"><path id="SvgjsPath1286" d="M 0 0L 71.67646789550781 0L 87.67646789550781 16L 87.67646789550781 20L 0 20L 0 0Z" stroke="none" fill-opacity="1" fill="#ffffaa"></path><path id="SvgjsPath1287" d="M 71.67646789550781 0L 71.67646789550781 16L 87.67646789550781 16Z" stroke="none" fill-opacity="1" fill="#cdcdcd"></path><path id="SvgjsPath1288" d="M 0 0L 71.67646789550781 0L 87.67646789550781 16L 87.67646789550781 20L 0 20L 0 0Z" stroke="none" fill="none"></path><g id="SvgjsG1289"><text id="SvgjsText1290" font-family="微软雅黑" text-anchor="start" font-size="13px" width="68px" fill="#323232" font-weight="400" align="middle" anchor="start" family="微软雅黑" size="13px" weight="400" font-style="" opacity="1" y="0.55" transform="rotate(0)"><tspan id="SvgjsTspan1291" dy="16" x="10"><tspan id="SvgjsTspan1292" style="text-decoration:;">VIP -&gt; CIP</tspan></tspan></text></g></g></svg>