<svg id="SvgjsSvg1395" width="1820.9043731689453" height="855.1874569654465" xmlns="http://www.w3.org/2000/svg" version="1.1" xmlns:xlink="http://www.w3.org/1999/xlink" xmlns:svgjs="http://svgjs.com/svgjs"><defs id="SvgjsDefs1396"><marker id="SvgjsMarker1438" markerWidth="16" markerHeight="12" refX="16" refY="6" viewBox="0 0 16 12" orient="auto" markerUnits="userSpaceOnUse" stroke-dasharray="0,0"><path id="SvgjsPath1439" d="M0,2 L14,6 L0,11 L0,2" fill="#323232" stroke="#323232" stroke-width="2"></path></marker><marker id="SvgjsMarker1442" markerWidth="16" markerHeight="12" refX="16" refY="6" viewBox="0 0 16 12" orient="auto" markerUnits="userSpaceOnUse" stroke-dasharray="0,0"><path id="SvgjsPath1443" d="M0,2 L14,6 L0,11 L0,2" fill="#323232" stroke="#323232" stroke-width="2"></path></marker><marker id="SvgjsMarker1510" markerWidth="16" markerHeight="12" refX="16" refY="6" viewBox="0 0 16 12" orient="auto" markerUnits="userSpaceOnUse" stroke-dasharray="0,0"><path id="SvgjsPath1511" d="M0,2 L14,6 L0,11 L0,2" fill="#323232" stroke="#323232" stroke-width="2"></path></marker><marker id="SvgjsMarker1514" markerWidth="16" markerHeight="12" refX="16" refY="6" viewBox="0 0 16 12" orient="auto" markerUnits="userSpaceOnUse" stroke-dasharray="0,0"><path id="SvgjsPath1515" d="M0,2 L14,6 L0,11 L0,2" fill="#323232" stroke="#323232" stroke-width="2"></path></marker><marker id="SvgjsMarker1518" markerWidth="16" markerHeight="12" refX="16" refY="6" viewBox="0 0 16 12" orient="auto" markerUnits="userSpaceOnUse" stroke-dasharray="0,0"><path id="SvgjsPath1519" d="M0,2 L14,6 L0,11 L0,2" fill="#323232" stroke="#323232" stroke-width="2"></path></marker><marker id="SvgjsMarker1522" markerWidth="16" markerHeight="12" refX="16" refY="6" viewBox="0 0 16 12" orient="auto" markerUnits="userSpaceOnUse" stroke-dasharray="0,0"><path id="SvgjsPath1523" d="M0,2 L14,6 L0,11 L0,2" fill="#323232" stroke="#323232" stroke-width="2"></path></marker><marker id="SvgjsMarker1562" markerWidth="16" markerHeight="12" refX="16" refY="6" viewBox="0 0 16 12" orient="auto" markerUnits="userSpaceOnUse" stroke-dasharray="0,0"><path id="SvgjsPath1563" d="M0,2 L14,6 L0,11 L0,2" fill="#323232" stroke="#323232" stroke-width="2"></path></marker><marker id="SvgjsMarker1570" markerWidth="16" markerHeight="12" refX="16" refY="6" viewBox="0 0 16 12" orient="auto" markerUnits="userSpaceOnUse" stroke-dasharray="0,0"><path id="SvgjsPath1571" d="M0,2 L14,6 L0,11 L0,2" fill="#323232" stroke="#323232" stroke-width="2"></path></marker><marker id="SvgjsMarker1677" markerWidth="16" markerHeight="12" refX="16" refY="6" viewBox="0 0 16 12" orient="auto" markerUnits="userSpaceOnUse" stroke-dasharray="0,0"><path id="SvgjsPath1678" d="M0,2 L14,6 L0,11 L0,2" fill="#323232" stroke="#323232" stroke-width="2"></path></marker><marker id="SvgjsMarker1685" markerWidth="16" markerHeight="12" refX="16" refY="6" viewBox="0 0 16 12" orient="auto" markerUnits="userSpaceOnUse" stroke-dasharray="0,0"><path id="SvgjsPath1686" d="M0,2 L14,6 L0,11 L0,2" fill="#323232" stroke="#323232" stroke-width="2"></path></marker><marker id="SvgjsMarker1745" markerWidth="16" markerHeight="12" refX="16" refY="6" viewBox="0 0 16 12" orient="auto" markerUnits="userSpaceOnUse" stroke-dasharray="0,0"><path id="SvgjsPath1746" d="M0,2 L14,6 L0,11 L0,2" fill="#323232" stroke="#323232" stroke-width="2"></path></marker><marker id="SvgjsMarker1749" markerWidth="16" markerHeight="12" refX="16" refY="6" viewBox="0 0 16 12" orient="auto" markerUnits="userSpaceOnUse" stroke-dasharray="0,0"><path id="SvgjsPath1750" d="M0,2 L14,6 L0,11 L0,2" fill="#323232" stroke="#323232" stroke-width="2"></path></marker><marker id="SvgjsMarker1779" markerWidth="16" markerHeight="12" refX="16" refY="6" viewBox="0 0 16 12" orient="auto" markerUnits="userSpaceOnUse" stroke-dasharray="0,0"><path id="SvgjsPath1780" d="M0,2 L14,6 L0,11 L0,2" fill="#323232" stroke="#323232" stroke-width="2"></path></marker></defs><rect id="SvgjsRect1397" width="1820.9043731689453" height="855.1874569654465" fill="#fffffe"></rect><g id="SvgjsG1398" transform="translate(203.70957946777344,341.22426879405975)"><path id="SvgjsPath1399" d="M 0 0L 432.11761474609375 0L 448.11761474609375 16L 448.11761474609375 284.64705657958984L 0 284.64705657958984L 0 0Z" stroke="none" fill-opacity="1" fill="#ffffaa"></path><path id="SvgjsPath1400" d="M 432.11761474609375 0L 432.11761474609375 16L 448.11761474609375 16Z" stroke="none" fill-opacity="1" fill="#cdcdcd"></path><path id="SvgjsPath1401" d="M 0 0L 432.11761474609375 0L 448.11761474609375 16L 448.11761474609375 284.64705657958984L 0 284.64705657958984L 0 0Z" stroke="none" fill="none"></path><g id="SvgjsG1402"><text id="SvgjsText1403" font-family="微软雅黑" text-anchor="middle" font-size="13px" width="429px" fill="#323232" font-weight="700" align="top" anchor="middle" family="微软雅黑" size="13px" weight="700" font-style="" opacity="1" y="8.05" transform="rotate(0)"><tspan id="SvgjsTspan1404" dy="16" x="224.5"><tspan id="SvgjsTspan1405" style="text-decoration:;">Topic</tspan></tspan></text></g></g><g id="SvgjsG1406" transform="translate(247.7683868408203,379.518389582634)"><path id="SvgjsPath1407" d="M 0 0L 360 0L 360 149L 0 149Z" stroke="rgba(50,50,50,1)" stroke-width="2" fill-opacity="1" fill="#ccffff"></path><g id="SvgjsG1408"><text id="SvgjsText1409" font-family="微软雅黑" text-anchor="middle" font-size="13px" width="340px" fill="#323232" font-weight="700" align="top" anchor="middle" family="微软雅黑" size="13px" weight="700" font-style="" opacity="1" y="-1.95" transform="rotate(0)"><tspan id="SvgjsTspan1410" dy="16" x="180"><tspan id="SvgjsTspan1411" style="text-decoration:;">Partition1</tspan></tspan></text></g></g><g id="SvgjsG1412" transform="translate(37.76838684082031,378.36398208141327)"><path id="SvgjsPath1413" d="M 0 30C 0 -10 98 -10 98 30C 98 70 0 70 0 30Z" stroke="rgba(50,50,50,1)" stroke-width="2" fill-opacity="1" fill="#b8b8b8"></path><g id="SvgjsG1414"><text id="SvgjsText1415" font-family="微软雅黑" text-anchor="middle" font-size="13px" width="78px" fill="#323232" font-weight="700" align="middle" anchor="middle" family="微软雅黑" size="13px" weight="700" font-style="" opacity="1" y="20.55" transform="rotate(0)"><tspan id="SvgjsTspan1416" dy="16" x="49"><tspan id="SvgjsTspan1417" style="text-decoration:;">Producer1</tspan></tspan></text></g></g><g id="SvgjsG1418" transform="translate(37.76838684082031,470.3713253736496)"><path id="SvgjsPath1419" d="M 0 30C 0 -10 98 -10 98 30C 98 70 0 70 0 30Z" stroke="rgba(50,50,50,1)" stroke-width="2" fill-opacity="1" fill="#b8b8b8"></path><g id="SvgjsG1420"><text id="SvgjsText1421" font-family="微软雅黑" text-anchor="middle" font-size="13px" width="78px" fill="#323232" font-weight="700" align="middle" anchor="middle" family="微软雅黑" size="13px" weight="700" font-style="" opacity="1" y="20.55" transform="rotate(0)"><tspan id="SvgjsTspan1422" dy="16" x="49"><tspan id="SvgjsTspan1423" style="text-decoration:;">Producer2</tspan></tspan></text></g></g><g id="SvgjsG1424" transform="translate(103.76838684082031,349.22426879405975)"><path id="SvgjsPath1425" d="M 27.5 0L 55 48.29412078857422L 0 48.29412078857422Z" stroke="rgba(50,50,50,1)" stroke-width="2" fill-opacity="1" fill="#ffcccc"></path><g id="SvgjsG1426"><text id="SvgjsText1427" font-family="微软雅黑" text-anchor="middle" font-size="13px" width="35px" fill="#323232" font-weight="700" align="middle" anchor="middle" family="微软雅黑" size="13px" weight="700" font-style="" opacity="1" y="20.733825492858887" transform="rotate(0)"><tspan id="SvgjsTspan1428" dy="16" x="27.5"><tspan id="SvgjsTspan1429" style="text-decoration:;">A</tspan></tspan></text></g></g><g id="SvgjsG1430" transform="translate(98.76838684082031,450.518389582634)"><path id="SvgjsPath1431" d="M 0 23L 32.5 0L 65 23L 32.5 46Z" stroke="rgba(50,50,50,1)" stroke-width="2" fill-opacity="1" fill="#99ccff"></path><g id="SvgjsG1432"><text id="SvgjsText1433" font-family="微软雅黑" text-anchor="middle" font-size="13px" width="45px" fill="#323232" font-weight="700" align="middle" anchor="middle" family="微软雅黑" size="13px" weight="700" font-style="" opacity="1" y="13.780000000000001" transform="rotate(0)"><tspan id="SvgjsTspan1434" dy="16" x="32.5"><tspan id="SvgjsTspan1435" style="text-decoration:;">B</tspan></tspan></text></g></g><g id="SvgjsG1436"><path id="SvgjsPath1437" d="M135.7683868408203 408.36398208141327C 183.41244536660005 416.76491506996143 199.38934191550163 454.018389582634 247.7683868408203 454.018389582634" stroke="#323232" stroke-width="2" fill="none" marker-end="url(#SvgjsMarker1438)"></path></g><g id="SvgjsG1440"><path id="SvgjsPath1441" d="M135.7683868408203 498.518389582634C 183.24265822855176 506.889384517767 199.56174829383178 454.018389582634 247.7683868408203 454.018389582634" stroke="#323232" stroke-width="2" fill="none" marker-end="url(#SvgjsMarker1442)"></path></g><g id="SvgjsG1444" transform="translate(261.7683868408203,403.518389582634)"><path id="SvgjsPath1445" d="M 0 33.33L 295.5 33.33L 295.5 0L 346 50.5L 295.5 101L 295.5 67.67L 0 67.67L 0 33.33Z" stroke="rgba(50,50,50,1)" stroke-width="2" fill-opacity="1" fill="#ffffff"></path><g id="SvgjsG1446"><text id="SvgjsText1447" font-family="微软雅黑" text-anchor="middle" font-size="13px" width="346px" fill="#323232" font-weight="700" align="middle" anchor="middle" family="微软雅黑" size="13px" weight="700" font-style="" opacity="1" y="41.05" transform="rotate(0)"></text></g></g><g id="SvgjsG1448" transform="translate(491.7683868408203,423.2242649793625)"><path id="SvgjsPath1449" d="M 27.5 0L 55 48.29412078857422L 0 48.29412078857422Z" stroke="rgba(50,50,50,1)" stroke-width="2" fill-opacity="1" fill="#ffcccc"></path><g id="SvgjsG1450"><text id="SvgjsText1451" font-family="微软雅黑" text-anchor="middle" font-size="13px" width="35px" fill="#323232" font-weight="700" align="middle" anchor="middle" family="微软雅黑" size="13px" weight="700" font-style="" opacity="1" y="20.733825492858887" transform="rotate(0)"><tspan id="SvgjsTspan1452" dy="16" x="27.5"><tspan id="SvgjsTspan1453" style="text-decoration:;">A1</tspan></tspan></text></g></g><g id="SvgjsG1454" transform="translate(430.7683868408203,424.3713253736496)"><path id="SvgjsPath1455" d="M 0 23L 32.5 0L 65 23L 32.5 46Z" stroke="rgba(50,50,50,1)" stroke-width="2" fill-opacity="1" fill="#99ccff"></path><g id="SvgjsG1456"><text id="SvgjsText1457" font-family="微软雅黑" text-anchor="middle" font-size="13px" width="45px" fill="#323232" font-weight="700" align="middle" anchor="middle" family="微软雅黑" size="13px" weight="700" font-style="" opacity="1" y="13.780000000000001" transform="rotate(0)"><tspan id="SvgjsTspan1458" dy="16" x="32.5"><tspan id="SvgjsTspan1459" style="text-decoration:;">B1</tspan></tspan></text></g></g><g id="SvgjsG1460" transform="translate(375.7683868408203,423.2242649793625)"><path id="SvgjsPath1461" d="M 27.5 0L 55 48.29412078857422L 0 48.29412078857422Z" stroke="rgba(50,50,50,1)" stroke-width="2" fill-opacity="1" fill="#ffcccc"></path><g id="SvgjsG1462"><text id="SvgjsText1463" font-family="微软雅黑" text-anchor="middle" font-size="13px" width="35px" fill="#323232" font-weight="700" align="middle" anchor="middle" family="微软雅黑" size="13px" weight="700" font-style="" opacity="1" y="20.733825492858887" transform="rotate(0)"><tspan id="SvgjsTspan1464" dy="16" x="27.5"><tspan id="SvgjsTspan1465" style="text-decoration:;">A2</tspan></tspan></text></g></g><g id="SvgjsG1466" transform="translate(310.7683868408203,431.018389582634)"><path id="SvgjsPath1467" d="M 0 23L 32.5 0L 65 23L 32.5 46Z" stroke="rgba(50,50,50,1)" stroke-width="2" fill-opacity="1" fill="#99ccff"></path><g id="SvgjsG1468"><text id="SvgjsText1469" font-family="微软雅黑" text-anchor="middle" font-size="13px" width="45px" fill="#323232" font-weight="700" align="middle" anchor="middle" family="微软雅黑" size="13px" weight="700" font-style="" opacity="1" y="13.780000000000001" transform="rotate(0)"><tspan id="SvgjsTspan1470" dy="16" x="32.5"><tspan id="SvgjsTspan1471" style="text-decoration:;">B2</tspan></tspan></text></g></g><g id="SvgjsG1472" transform="translate(25.003707885742188,235.9889668226242)"><path id="SvgjsPath1473" d="M 0 0L 236 0L 252 16L 252 83L 0 83L 0 0Z" stroke="none" fill-opacity="1" fill="#ffffaa"></path><path id="SvgjsPath1474" d="M 236 0L 236 16L 252 16Z" stroke="none" fill-opacity="1" fill="#cdcdcd"></path><path id="SvgjsPath1475" d="M 0 0L 236 0L 252 16L 252 83L 0 83L 0 0Z" stroke="none" fill="none"></path><g id="SvgjsG1476"><text id="SvgjsText1477" font-family="微软雅黑" text-anchor="start" font-size="13px" width="232px" fill="#323232" font-weight="700" align="top" anchor="start" family="微软雅黑" size="13px" weight="700" font-style="" opacity="1" y="8.05" transform="rotate(0)"><tspan id="SvgjsTspan1478" dy="16" x="10"><tspan id="SvgjsTspan1479" style="text-decoration:;">Producer如何保证消息的顺序性：</tspan></tspan><tspan id="SvgjsTspan1480" dy="16" x="10"><tspan id="SvgjsTspan1481" style="text-decoration:;">如何没有顺序性约束，消息为 V;</tspan></tspan><tspan id="SvgjsTspan1482" dy="16" x="10"><tspan id="SvgjsTspan1483" style="text-decoration:;">如何有顺序性约束，消息为 K/V,同一个 </tspan></tspan><tspan id="SvgjsTspan1484" dy="16" x="10"><tspan id="SvgjsTspan1485" style="text-decoration:;">K 的消息会进入同一个 Partition</tspan></tspan></text></g></g><g id="SvgjsG1486" transform="translate(681.9448699951172,326.518389582634)"><path id="SvgjsPath1487" d="M 0 4Q 0 0 4 0L 753.4705657958984 0Q 757.4705657958984 0 757.4705657958984 4L 757.4705657958984 203.0588150024414Q 757.4705657958984 207.0588150024414 753.4705657958984 207.0588150024414L 4 207.0588150024414Q 0 207.0588150024414 0 203.0588150024414Z" stroke="rgba(50,50,50,1)" stroke-width="2" fill-opacity="1" fill="#ffccff"></path><g id="SvgjsG1488"><text id="SvgjsText1489" font-family="微软雅黑" text-anchor="middle" font-size="13px" width="738px" fill="#323232" font-weight="700" align="top" anchor="middle" family="微软雅黑" size="13px" weight="700" font-style="" opacity="1" y="-1.95" transform="rotate(0)"><tspan id="SvgjsTspan1490" dy="16" x="379"><tspan id="SvgjsTspan1491" style="text-decoration:;">Consumer1</tspan></tspan></text></g></g><g id="SvgjsG1492" transform="translate(247.7683868408203,551.518389582634)"><path id="SvgjsPath1493" d="M 0 0L 360 0L 360 59.352935791015625L 0 59.352935791015625Z" stroke="rgba(50,50,50,1)" stroke-width="2" fill-opacity="1" fill="#ccffff"></path><g id="SvgjsG1494"><text id="SvgjsText1495" font-family="微软雅黑" text-anchor="middle" font-size="13px" width="340px" fill="#323232" font-weight="700" align="top" anchor="middle" family="微软雅黑" size="13px" weight="700" font-style="" opacity="1" y="-1.95" transform="rotate(0)"><tspan id="SvgjsTspan1496" dy="16" x="180"><tspan id="SvgjsTspan1497" style="text-decoration:;">Partition2</tspan></tspan></text></g></g><g id="SvgjsG1498" transform="translate(261.7683868408203,551.1948574781418)"><path id="SvgjsPath1499" d="M 0 19.8L 316 19.8L 316 0L 346 30L 316 60L 316 40.2L 0 40.2L 0 19.8Z" stroke="rgba(50,50,50,1)" stroke-width="2" fill-opacity="1" fill="#ffffff"></path><g id="SvgjsG1500"><text id="SvgjsText1501" font-family="微软雅黑" text-anchor="middle" font-size="13px" width="346px" fill="#323232" font-weight="700" align="middle" anchor="middle" family="微软雅黑" size="13px" weight="700" font-style="" opacity="1" y="20.55" transform="rotate(0)"></text></g></g><g id="SvgjsG1502" transform="translate(37.76838684082031,551.1948574781418)"><path id="SvgjsPath1503" d="M 0 30C 0 -10 98 -10 98 30C 98 70 0 70 0 30Z" stroke="rgba(50,50,50,1)" stroke-width="2" fill-opacity="1" fill="#b8b8b8"></path><g id="SvgjsG1504"><text id="SvgjsText1505" font-family="微软雅黑" text-anchor="middle" font-size="13px" width="78px" fill="#323232" font-weight="700" align="middle" anchor="middle" family="微软雅黑" size="13px" weight="700" font-style="" opacity="1" y="20.55" transform="rotate(0)"><tspan id="SvgjsTspan1506" dy="16" x="49"><tspan id="SvgjsTspan1507" style="text-decoration:;">Producer3</tspan></tspan></text></g></g><g id="SvgjsG1508"><path id="SvgjsPath1509" d="M135.7683868408203 581.1948574781418C 179.88777417576722 588.9742958376203 202.9683868408203 581.1948574781418 247.7683868408203 581.1948574781418" stroke="#323232" stroke-width="2" fill="none" marker-end="url(#SvgjsMarker1510)"></path></g><g id="SvgjsG1512"><path id="SvgjsPath1513" d="M135.7683868408203 500.3713253736496C 190.17606010922532 509.9648661284401 192.52138751329719 581.1948574781418 247.7683868408203 581.1948574781418" stroke="#323232" stroke-width="2" fill="none" marker-end="url(#SvgjsMarker1514)"></path></g><g id="SvgjsG1516"><path id="SvgjsPath1517" d="M135.7683868408203 581.1948574781418C 202.523946586617 592.9656637736217 179.98301498360956 454.018389582634 247.7683868408203 454.018389582634" stroke="#323232" stroke-width="2" fill="none" marker-end="url(#SvgjsMarker1518)"></path></g><g id="SvgjsG1520"><path id="SvgjsPath1521" d="M135.7683868408203 408.36398208141327C 216.8959974069732 422.6689687046352 165.3892521132455 581.1948574781418 247.7683868408203 581.1948574781418" stroke="#323232" stroke-width="2" fill="none" marker-end="url(#SvgjsMarker1522)"></path></g><g id="SvgjsG1524" transform="translate(110.94486999511719,539.8713253736496)"><path id="SvgjsPath1525" d="M 0 15C 0 -5 30 -5 30 15C 30 35 0 35 0 15Z" stroke="rgba(50,50,50,1)" stroke-width="2" fill-opacity="1" fill="#ccff99"></path><g id="SvgjsG1526"><text id="SvgjsText1527" font-family="微软雅黑" text-anchor="middle" font-size="13px" width="10px" fill="#323232" font-weight="700" align="middle" anchor="middle" family="微软雅黑" size="13px" weight="700" font-style="" opacity="1" y="5.55" transform="rotate(0)"><tspan id="SvgjsTspan1528" dy="16" x="15"><tspan id="SvgjsTspan1529" style="text-decoration:;">C</tspan></tspan></text></g></g><g id="SvgjsG1530" transform="translate(328.2683868408203,566.1948574781418)"><path id="SvgjsPath1531" d="M 0 15C 0 -5 30 -5 30 15C 30 35 0 35 0 15Z" stroke="rgba(50,50,50,1)" stroke-width="2" fill-opacity="1" fill="#ccff99"></path><g id="SvgjsG1532"><text id="SvgjsText1533" font-family="微软雅黑" text-anchor="middle" font-size="13px" width="10px" fill="#323232" font-weight="700" align="middle" anchor="middle" family="微软雅黑" size="13px" weight="700" font-style="" opacity="1" y="5.55" transform="rotate(0)"><tspan id="SvgjsTspan1534" dy="16" x="15"><tspan id="SvgjsTspan1535" style="text-decoration:;">C</tspan></tspan></text></g></g><g id="SvgjsG1536" transform="translate(388.2683868408203,566.1948574781418)"><path id="SvgjsPath1537" d="M 0 15C 0 -5 30 -5 30 15C 30 35 0 35 0 15Z" stroke="rgba(50,50,50,1)" stroke-width="2" fill-opacity="1" fill="#ccff99"></path><g id="SvgjsG1538"><text id="SvgjsText1539" font-family="微软雅黑" text-anchor="middle" font-size="13px" width="10px" fill="#323232" font-weight="700" align="middle" anchor="middle" family="微软雅黑" size="13px" weight="700" font-style="" opacity="1" y="5.55" transform="rotate(0)"><tspan id="SvgjsTspan1540" dy="16" x="15"><tspan id="SvgjsTspan1541" style="text-decoration:;">C</tspan></tspan></text></g></g><g id="SvgjsG1542" transform="translate(448.2683868408203,566.1948574781418)"><path id="SvgjsPath1543" d="M 0 15C 0 -5 30 -5 30 15C 30 35 0 35 0 15Z" stroke="rgba(50,50,50,1)" stroke-width="2" fill-opacity="1" fill="#ccff99"></path><g id="SvgjsG1544"><text id="SvgjsText1545" font-family="微软雅黑" text-anchor="middle" font-size="13px" width="10px" fill="#323232" font-weight="700" align="middle" anchor="middle" family="微软雅黑" size="13px" weight="700" font-style="" opacity="1" y="5.55" transform="rotate(0)"><tspan id="SvgjsTspan1546" dy="16" x="15"><tspan id="SvgjsTspan1547" style="text-decoration:;">C</tspan></tspan></text></g></g><g id="SvgjsG1548" transform="translate(504.2683868408203,566.1948574781418)"><path id="SvgjsPath1549" d="M 0 15C 0 -5 30 -5 30 15C 30 35 0 35 0 15Z" stroke="rgba(50,50,50,1)" stroke-width="2" fill-opacity="1" fill="#ccff99"></path><g id="SvgjsG1550"><text id="SvgjsText1551" font-family="微软雅黑" text-anchor="middle" font-size="13px" width="10px" fill="#323232" font-weight="700" align="middle" anchor="middle" family="微软雅黑" size="13px" weight="700" font-style="" opacity="1" y="5.55" transform="rotate(0)"><tspan id="SvgjsTspan1552" dy="16" x="15"><tspan id="SvgjsTspan1553" style="text-decoration:;">C</tspan></tspan></text></g></g><g id="SvgjsG1554" transform="translate(681.9448699951172,547.6654537916183)"><path id="SvgjsPath1555" d="M 0 4Q 0 0 4 0L 753.4705657958984 0Q 757.4705657958984 0 757.4705657958984 4L 757.4705657958984 55.80881118774414Q 757.4705657958984 59.80881118774414 753.4705657958984 59.80881118774414L 4 59.80881118774414Q 0 59.80881118774414 0 55.80881118774414Z" stroke="rgba(50,50,50,1)" stroke-width="2" fill-opacity="1" fill="#ffccff"></path><g id="SvgjsG1556"><text id="SvgjsText1557" font-family="微软雅黑" text-anchor="middle" font-size="13px" width="738px" fill="#323232" font-weight="700" align="top" anchor="middle" family="微软雅黑" size="13px" weight="700" font-style="" opacity="1" y="-1.95" transform="rotate(0)"><tspan id="SvgjsTspan1558" dy="16" x="379"><tspan id="SvgjsTspan1559" style="text-decoration:;">Consumer2</tspan></tspan></text></g></g><g id="SvgjsG1560"><path id="SvgjsPath1561" d="M607.7683868408203 454.018389582634C 640.6024665012751 465.96901724856485 656.8270890864609 430.0477970838547 691.7683868408203 430.0477970838547" stroke="#323232" stroke-width="2" fill="none" marker-end="url(#SvgjsMarker1562)"></path><rect id="SvgjsRect1564" width="26" height="15" x="635.9781800556061" y="439.01457870796844" fill="#ffffff"></rect><text id="SvgjsText1565" font-family="微软雅黑" text-anchor="middle" font-size="13px" width="26px" fill="#323232" font-weight="700" align="top" anchor="middle" family="微软雅黑" size="13px" weight="700" font-style="" opacity="1" y="437.06457870796845" transform="rotate(0)"><tspan id="SvgjsTspan1566" dy="16" x="648.9781800556061"><tspan id="SvgjsTspan1567" style="text-decoration:;">拉取</tspan></tspan></text></g><g id="SvgjsG1568"><path id="SvgjsPath1569" d="M607.7683868408203 581.1948574781418C 635.6828984640171 591.3549088130633 652.2388671961908 577.5698593854904 681.9448699951172 577.5698593854904" stroke="#323232" stroke-width="2" fill="none" marker-end="url(#SvgjsMarker1570)"></path><rect id="SvgjsRect1572" width="26" height="15" x="631.1848192270702" y="575.6923776824117" fill="#ffffff"></rect><text id="SvgjsText1573" font-family="微软雅黑" text-anchor="middle" font-size="13px" width="26px" fill="#323232" font-weight="700" align="top" anchor="middle" family="微软雅黑" size="13px" weight="700" font-style="" opacity="1" y="573.7423776824116" transform="rotate(0)"><tspan id="SvgjsTspan1574" dy="16" x="644.1848192270702"><tspan id="SvgjsTspan1575" style="text-decoration:;">拉取</tspan></tspan></text></g><g id="SvgjsG1576" transform="translate(691.7683868408203,332.915455698967)"><path id="SvgjsPath1577" d="M 0 0L 160.05881786346436 0L 176.05881786346436 16L 176.05881786346436 59.058815002441406L 0 59.058815002441406L 0 0Z" stroke="none" fill-opacity="1" fill="#ffffaa"></path><path id="SvgjsPath1578" d="M 160.05881786346436 0L 160.05881786346436 16L 176.05881786346436 16Z" stroke="none" fill-opacity="1" fill="#cdcdcd"></path><path id="SvgjsPath1579" d="M 0 0L 160.05881786346436 0L 176.05881786346436 16L 176.05881786346436 59.058815002441406L 0 59.058815002441406L 0 0Z" stroke="none" fill="none"></path><g id="SvgjsG1580"><text id="SvgjsText1581" font-family="微软雅黑" text-anchor="start" font-size="13px" width="157px" fill="#323232" font-weight="700" align="top" anchor="start" family="微软雅黑" size="13px" weight="700" font-style="" opacity="1" y="8.05" transform="rotate(0)"><tspan id="SvgjsTspan1582" dy="16" x="10"><tspan id="SvgjsTspan1583" style="text-decoration:;">Consumer 批次拉取消</tspan></tspan><tspan id="SvgjsTspan1584" dy="16" x="10"><tspan id="SvgjsTspan1585" style="text-decoration:;">息，消息的消费可以采用</tspan><tspan id="SvgjsTspan1586" style="text-decoration:;fill: rgb(255, 128, 0);">单</tspan></tspan><tspan id="SvgjsTspan1587" dy="16" x="10"><tspan id="SvgjsTspan1588" style="text-decoration:;fill: rgb(255, 128, 0);">线程</tspan><tspan id="SvgjsTspan1589" style="text-decoration:;">或者</tspan><tspan id="SvgjsTspan1590" style="text-decoration:;fill: rgb(255, 128, 0);">多线程</tspan></tspan></text></g></g><g id="SvgjsG1591" transform="translate(691.7683868408203,391.9742707014084)"><path id="SvgjsPath1592" d="M 0 25.128527412414552L 195.51468467712402 25.128527412414552L 195.51468467712402 0L 233.5882110595703 38.07352638244629L 195.51468467712402 76.14705276489258L 195.51468467712402 51.01852535247803L 0 51.01852535247803L 0 25.128527412414552Z" stroke="rgba(50,50,50,1)" stroke-width="2" fill-opacity="1" fill="#ffffff"></path><g id="SvgjsG1593"><text id="SvgjsText1594" font-family="微软雅黑" text-anchor="middle" font-size="13px" width="234px" fill="#323232" font-weight="700" align="middle" anchor="middle" family="微软雅黑" size="13px" weight="700" font-style="" opacity="1" y="28.62352638244629" transform="rotate(0)"></text></g></g><g id="SvgjsG1595" transform="translate(824.8272247314453,402.22426879405975)"><path id="SvgjsPath1596" d="M 27.5 0L 55 48.29412078857422L 0 48.29412078857422Z" stroke="rgba(50,50,50,1)" stroke-width="2" fill-opacity="1" fill="#ffcccc"></path><g id="SvgjsG1597"><text id="SvgjsText1598" font-family="微软雅黑" text-anchor="middle" font-size="13px" width="35px" fill="#323232" font-weight="700" align="middle" anchor="middle" family="微软雅黑" size="13px" weight="700" font-style="" opacity="1" y="20.733825492858887" transform="rotate(0)"><tspan id="SvgjsTspan1599" dy="16" x="27.5"><tspan id="SvgjsTspan1600" style="text-decoration:;">A1</tspan></tspan></text></g></g><g id="SvgjsG1601" transform="translate(756.7683868408203,407.0477970838547)"><path id="SvgjsPath1602" d="M 0 23L 32.5 0L 65 23L 32.5 46Z" stroke="rgba(50,50,50,1)" stroke-width="2" fill-opacity="1" fill="#99ccff"></path><g id="SvgjsG1603"><text id="SvgjsText1604" font-family="微软雅黑" text-anchor="middle" font-size="13px" width="45px" fill="#323232" font-weight="700" align="middle" anchor="middle" family="微软雅黑" size="13px" weight="700" font-style="" opacity="1" y="13.780000000000001" transform="rotate(0)"><tspan id="SvgjsTspan1605" dy="16" x="32.5"><tspan id="SvgjsTspan1606" style="text-decoration:;">B1</tspan></tspan></text></g></g><g id="SvgjsG1607" transform="translate(700.7683868408203,402.22426879405975)"><path id="SvgjsPath1608" d="M 27.5 0L 55 48.29412078857422L 0 48.29412078857422Z" stroke="rgba(50,50,50,1)" stroke-width="2" fill-opacity="1" fill="#ffcccc"></path><g id="SvgjsG1609"><text id="SvgjsText1610" font-family="微软雅黑" text-anchor="middle" font-size="13px" width="35px" fill="#323232" font-weight="700" align="middle" anchor="middle" family="微软雅黑" size="13px" weight="700" font-style="" opacity="1" y="20.733825492858887" transform="rotate(0)"><tspan id="SvgjsTspan1611" dy="16" x="27.5"><tspan id="SvgjsTspan1612" style="text-decoration:;">A2</tspan></tspan></text></g></g><g id="SvgjsG1613" transform="translate(691.7683868408203,554.9154499769211)"><path id="SvgjsPath1614" d="M 0 17.344408950805665L 91.2499885559082 17.344408950805665L 91.2499885559082 0L 117.5293960571289 26.279407501220703L 91.2499885559082 52.558815002441406L 91.2499885559082 35.21440605163574L 0 35.21440605163574L 0 17.344408950805665Z" stroke="rgba(50,50,50,1)" stroke-width="2" fill-opacity="1" fill="#ffffff"></path><g id="SvgjsG1615"><text id="SvgjsText1616" font-family="微软雅黑" text-anchor="middle" font-size="13px" width="118px" fill="#323232" font-weight="700" align="middle" anchor="middle" family="微软雅黑" size="13px" weight="700" font-style="" opacity="1" y="16.829407501220704" transform="rotate(0)"></text></g></g><g id="SvgjsG1617" transform="translate(735.5330848693848,566.1948574781418)"><path id="SvgjsPath1618" d="M 0 15C 0 -5 30 -5 30 15C 30 35 0 35 0 15Z" stroke="rgba(50,50,50,1)" stroke-width="2" fill-opacity="1" fill="#ccff99"></path><g id="SvgjsG1619"><text id="SvgjsText1620" font-family="微软雅黑" text-anchor="middle" font-size="13px" width="10px" fill="#323232" font-weight="700" align="middle" anchor="middle" family="微软雅黑" size="13px" weight="700" font-style="" opacity="1" y="-2.45" transform="rotate(0)"><tspan id="SvgjsTspan1621" dy="16" x="15"><tspan id="SvgjsTspan1622" style="text-decoration:;">C</tspan></tspan><tspan id="SvgjsTspan1623" dy="16" x="15"><tspan id="SvgjsTspan1624" style="text-decoration:;">1</tspan></tspan></text></g></g><g id="SvgjsG1625" transform="translate(697.7683868408203,566.1948574781418)"><path id="SvgjsPath1626" d="M 0 15C 0 -5 30.529396057128906 -5 30.529396057128906 15C 30.529396057128906 35 0 35 0 15Z" stroke="rgba(50,50,50,1)" stroke-width="2" fill-opacity="1" fill="#ccff99"></path><g id="SvgjsG1627"><text id="SvgjsText1628" font-family="微软雅黑" text-anchor="middle" font-size="13px" width="11px" fill="#323232" font-weight="700" align="middle" anchor="middle" family="微软雅黑" size="13px" weight="700" font-style="" opacity="1" y="-2.45" transform="rotate(0)"><tspan id="SvgjsTspan1629" dy="16" x="15.5"><tspan id="SvgjsTspan1630" style="text-decoration:;">C</tspan></tspan><tspan id="SvgjsTspan1631" dy="16" x="15.5"><tspan id="SvgjsTspan1632" style="text-decoration:;">2</tspan></tspan></text></g></g><g id="SvgjsG1633" transform="translate(1185.2977828979492,564.1801518201828)"><path id="SvgjsPath1634" d="M 0 0L 203 0L 219 16L 219 34.02941131591797L 0 34.02941131591797L 0 0Z" stroke="none" fill-opacity="1" fill="#ffffaa"></path><path id="SvgjsPath1635" d="M 203 0L 203 16L 219 16Z" stroke="none" fill-opacity="1" fill="#cdcdcd"></path><path id="SvgjsPath1636" d="M 0 0L 203 0L 219 16L 219 34.02941131591797L 0 34.02941131591797L 0 0Z" stroke="none" fill="none"></path><g id="SvgjsG1637"><text id="SvgjsText1638" font-family="微软雅黑" text-anchor="middle" font-size="13px" width="199px" fill="#323232" font-weight="700" align="middle" anchor="middle" family="微软雅黑" size="13px" weight="700" font-style="" opacity="1" y="7.564705657958984" transform="rotate(0)"><tspan id="SvgjsTspan1639" dy="16" x="109.5"><tspan id="SvgjsTspan1640" style="text-decoration:;">采用单线程处理，offset容易维护</tspan></tspan></text></g></g><g id="SvgjsG1641" transform="translate(818.2977828979492,562.8933876752853)"><path id="SvgjsPath1642" d="M 0 0L 200.1176528930664 0L 200.1176528930664 36.60293960571289L 0 36.60293960571289Z" stroke="rgba(50,50,50,1)" stroke-width="2" fill-opacity="1" fill="#ffffcc"></path><g id="SvgjsG1643"><text id="SvgjsText1644" font-family="微软雅黑" text-anchor="end" font-size="13px" width="181px" fill="#323232" font-weight="700" align="middle" anchor="end" family="微软雅黑" size="13px" weight="700" font-style="" opacity="1" y="8.851469802856446" transform="rotate(0)"><tspan id="SvgjsTspan1645" dy="16" x="191"><tspan id="SvgjsTspan1646" style="text-decoration:;">Thread</tspan></tspan></text></g></g><g id="SvgjsG1647" transform="translate(936.2977828979492,344.1654351949692)"><path id="SvgjsPath1648" d="M 0 0L 220.1176528930664 0L 220.1176528930664 79.05882978439331L 0 79.05882978439331Z" stroke="rgba(50,50,50,1)" stroke-width="2" fill-opacity="1" fill="#ffffcc"></path><g id="SvgjsG1649"><text id="SvgjsText1650" font-family="微软雅黑" text-anchor="middle" font-size="13px" width="201px" fill="#323232" font-weight="700" align="top" anchor="middle" family="微软雅黑" size="13px" weight="700" font-style="" opacity="1" y="-1.95" transform="rotate(0)"><tspan id="SvgjsTspan1651" dy="16" x="110.5"><tspan id="SvgjsTspan1652" style="text-decoration:;">Thread1</tspan></tspan></text></g></g><g id="SvgjsG1653" transform="translate(936.2977828979492,438.36398208141327)"><path id="SvgjsPath1654" d="M 0 0L 220.1176528930664 0L 220.1176528930664 75.09557771682739L 0 75.09557771682739Z" stroke="rgba(50,50,50,1)" stroke-width="2" fill-opacity="1" fill="#ffffcc"></path><g id="SvgjsG1655"><text id="SvgjsText1656" font-family="微软雅黑" text-anchor="middle" font-size="13px" width="201px" fill="#323232" font-weight="700" align="top" anchor="middle" family="微软雅黑" size="13px" weight="700" font-style="" opacity="1" y="-1.95" transform="rotate(0)"><tspan id="SvgjsTspan1657" dy="16" x="110.5"><tspan id="SvgjsTspan1658" style="text-decoration:;">Thread2</tspan></tspan></text></g></g><g id="SvgjsG1659" transform="translate(922.7683868408203,566.1948574781418)"><path id="SvgjsPath1660" d="M 0 15C 0 -5 30 -5 30 15C 30 35 0 35 0 15Z" stroke="rgba(50,50,50,1)" stroke-width="2" fill-opacity="1" fill="#ccff99"></path><g id="SvgjsG1661"><text id="SvgjsText1662" font-family="微软雅黑" text-anchor="middle" font-size="13px" width="10px" fill="#323232" font-weight="700" align="middle" anchor="middle" family="微软雅黑" size="13px" weight="700" font-style="" opacity="1" y="-2.45" transform="rotate(0)"><tspan id="SvgjsTspan1663" dy="16" x="15"><tspan id="SvgjsTspan1664" style="text-decoration:;">C</tspan></tspan><tspan id="SvgjsTspan1665" dy="16" x="15"><tspan id="SvgjsTspan1666" style="text-decoration:;">1</tspan></tspan></text></g></g><g id="SvgjsG1667" transform="translate(859.7683868408203,566.1948574781418)"><path id="SvgjsPath1668" d="M 0 15C 0 -5 30 -5 30 15C 30 35 0 35 0 15Z" stroke="rgba(50,50,50,1)" stroke-width="2" fill-opacity="1" fill="#ccff99"></path><g id="SvgjsG1669"><text id="SvgjsText1670" font-family="微软雅黑" text-anchor="middle" font-size="13px" width="10px" fill="#323232" font-weight="700" align="middle" anchor="middle" family="微软雅黑" size="13px" weight="700" font-style="" opacity="1" y="-2.45" transform="rotate(0)"><tspan id="SvgjsTspan1671" dy="16" x="15"><tspan id="SvgjsTspan1672" style="text-decoration:;">C</tspan></tspan><tspan id="SvgjsTspan1673" dy="16" x="15"><tspan id="SvgjsTspan1674" style="text-decoration:;">2</tspan></tspan></text></g></g><g id="SvgjsG1675"><path id="SvgjsPath1676" d="M874.7683868408203 596.1948574781418C 890.3861392530281 774.7065844012532 427.76838684082037 805.0649380931897 427.7683868408203 625.8713253736496" stroke="#323232" stroke-width="2" fill="none" marker-end="url(#SvgjsMarker1677)"></path><rect id="SvgjsRect1679" width="82" height="15" x="616.1250439953983" y="737.67259379189" fill="#ffffff"></rect><text id="SvgjsText1680" font-family="微软雅黑" text-anchor="middle" font-size="13px" width="82px" fill="#323232" font-weight="700" align="top" anchor="middle" family="微软雅黑" size="13px" weight="700" font-style="" opacity="1" y="735.72259379189" transform="rotate(0)"><tspan id="SvgjsTspan1681" dy="16" x="657.1250439953983"><tspan id="SvgjsTspan1682" style="text-decoration:;">update offset</tspan></tspan></text></g><g id="SvgjsG1683"><path id="SvgjsPath1684" d="M937.7683868408203 596.1948574781418C 955.5782338772296 799.7623406084792 427.76838684082037 830.216403218653 427.7683868408203 625.8713253736496" stroke="#323232" stroke-width="2" fill="none" marker-end="url(#SvgjsMarker1685)"></path><rect id="SvgjsRect1687" width="82" height="15" x="648.4470794794738" y="756.5003017916486" fill="#ffffff"></rect><text id="SvgjsText1688" font-family="微软雅黑" text-anchor="middle" font-size="13px" width="82px" fill="#323232" font-weight="700" align="top" anchor="middle" family="微软雅黑" size="13px" weight="700" font-style="" opacity="1" y="754.5503017916485" transform="rotate(0)"><tspan id="SvgjsTspan1689" dy="16" x="689.4470794794738"><tspan id="SvgjsTspan1690" style="text-decoration:;">update offset</tspan></tspan></text></g><g id="SvgjsG1691" transform="translate(947.4154357910156,346.14706122875214)"><path id="SvgjsPath1692" d="M 0 24.78154064655304L 167.3934142589569 24.78154064655304L 167.3934142589569 0L 204.9412031173706 37.547788858413696L 167.3934142589569 75.09557771682739L 167.3934142589569 50.31403707027436L 0 50.31403707027436L 0 24.78154064655304Z" stroke="rgba(50,50,50,1)" stroke-width="2" fill-opacity="1" fill="#ffffff"></path><g id="SvgjsG1693"><text id="SvgjsText1694" font-family="微软雅黑" text-anchor="end" font-size="13px" width="205px" fill="#323232" font-weight="700" align="middle" anchor="end" family="微软雅黑" size="13px" weight="700" font-style="" opacity="1" y="28.097788858413697" transform="rotate(0)"><tspan id="SvgjsTspan1695" dy="16" x="205"><tspan id="SvgjsTspan1696" style="text-decoration:;"> </tspan></tspan></text></g></g><g id="SvgjsG1697" transform="translate(1008.8272247314453,363.5477896928787)"><path id="SvgjsPath1698" d="M 20.294105529785156 0L 40.58821105957031 36.14706039428711L 0 36.14706039428711Z" stroke="rgba(50,50,50,1)" stroke-width="2" fill-opacity="1" fill="#ffcccc"></path><g id="SvgjsG1699"><text id="SvgjsText1700" font-family="微软雅黑" text-anchor="middle" font-size="13px" width="21px" fill="#323232" font-weight="700" align="middle" anchor="middle" family="微软雅黑" size="13px" weight="700" font-style="" opacity="1" y="13.141912746429444" transform="rotate(0)"><tspan id="SvgjsTspan1701" dy="16" x="20.5"><tspan id="SvgjsTspan1702" style="text-decoration:;">A1</tspan></tspan></text></g></g><g id="SvgjsG1703" transform="translate(959.4154357910156,363.5477896928787)"><path id="SvgjsPath1704" d="M 18.5 0L 37 36.14706039428711L 0 36.14706039428711Z" stroke="rgba(50,50,50,1)" stroke-width="2" fill-opacity="1" fill="#ffcccc"></path><g id="SvgjsG1705"><text id="SvgjsText1706" font-family="微软雅黑" text-anchor="middle" font-size="13px" width="17px" fill="#323232" font-weight="700" align="middle" anchor="middle" family="微软雅黑" size="13px" weight="700" font-style="" opacity="1" y="13.141912746429444" transform="rotate(0)"><tspan id="SvgjsTspan1707" dy="16" x="18.5"><tspan id="SvgjsTspan1708" style="text-decoration:;">A2</tspan></tspan></text></g></g><g id="SvgjsG1709" transform="translate(1060.4154357910156,371.69485008716583)"><path id="SvgjsPath1710" d="M 0 0L 37 0L 53 16L 53 24L 0 24L 0 0Z" stroke="none" fill-opacity="1" fill="#ffffaa"></path><path id="SvgjsPath1711" d="M 37 0L 37 16L 53 16Z" stroke="none" fill-opacity="1" fill="#cdcdcd"></path><path id="SvgjsPath1712" d="M 0 0L 37 0L 53 16L 53 24L 0 24L 0 0Z" stroke="none" fill="none"></path><g id="SvgjsG1713"><text id="SvgjsText1714" font-family="微软雅黑" text-anchor="middle" font-size="13px" width="33px" fill="#323232" font-weight="700" align="middle" anchor="middle" family="微软雅黑" size="13px" weight="700" font-style="" opacity="1" y="2.55" transform="rotate(0)"><tspan id="SvgjsTspan1715" dy="16" x="26.5"><tspan id="SvgjsTspan1716" style="text-decoration:;">redis</tspan></tspan></text></g></g><g id="SvgjsG1717" transform="translate(947.4154357910156,438.36398208141327)"><path id="SvgjsPath1718" d="M 0 24.78154064655304L 167.3934142589569 24.78154064655304L 167.3934142589569 0L 204.9412031173706 37.547788858413696L 167.3934142589569 75.09557771682739L 167.3934142589569 50.31403707027436L 0 50.31403707027436L 0 24.78154064655304Z" stroke="rgba(50,50,50,1)" stroke-width="2" fill-opacity="1" fill="#ffffff"></path><g id="SvgjsG1719"><text id="SvgjsText1720" font-family="微软雅黑" text-anchor="end" font-size="13px" width="205px" fill="#323232" font-weight="700" align="middle" anchor="end" family="微软雅黑" size="13px" weight="700" font-style="" opacity="1" y="28.097788858413697" transform="rotate(0)"><tspan id="SvgjsTspan1721" dy="16" x="205"><tspan id="SvgjsTspan1722" style="text-decoration:;"> </tspan></tspan></text></g></g><g id="SvgjsG1723" transform="translate(1060.4154357910156,463.91177093982697)"><path id="SvgjsPath1724" d="M 0 0L 37 0L 53 16L 53 24L 0 24L 0 0Z" stroke="none" fill-opacity="1" fill="#ffffaa"></path><path id="SvgjsPath1725" d="M 37 0L 37 16L 53 16Z" stroke="none" fill-opacity="1" fill="#cdcdcd"></path><path id="SvgjsPath1726" d="M 0 0L 37 0L 53 16L 53 24L 0 24L 0 0Z" stroke="none" fill="none"></path><g id="SvgjsG1727"><text id="SvgjsText1728" font-family="微软雅黑" text-anchor="middle" font-size="13px" width="33px" fill="#323232" font-weight="700" align="middle" anchor="middle" family="微软雅黑" size="13px" weight="700" font-style="" opacity="1" y="2.55" transform="rotate(0)"><tspan id="SvgjsTspan1729" dy="16" x="26.5"><tspan id="SvgjsTspan1730" style="text-decoration:;">redis</tspan></tspan></text></g></g><g id="SvgjsG1731" transform="translate(980.7683868408203,458.3529518842697)"><path id="SvgjsPath1732" d="M 0 17.55881905555725L 24.323524475097656 0L 48.64704895019531 17.55881905555725L 24.323524475097656 35.1176381111145Z" stroke="rgba(50,50,50,1)" stroke-width="2" fill-opacity="1" fill="#99ccff"></path><g id="SvgjsG1733"><text id="SvgjsText1734" font-family="微软雅黑" text-anchor="middle" font-size="13px" width="29px" fill="#323232" font-weight="700" align="middle" anchor="middle" family="微软雅黑" size="13px" weight="700" font-style="" opacity="1" y="8.284407246112824" transform="rotate(0)"><tspan id="SvgjsTspan1735" dy="16" x="24.5"><tspan id="SvgjsTspan1736" style="text-decoration:;">B1</tspan></tspan></text></g></g><g id="SvgjsG1737" transform="translate(1196.4154357910156,391.37132918834686)"><path id="SvgjsPath1738" d="M 0 0L 235 0L 235 77.35293579101562L 0 77.35293579101562Z" stroke="rgba(50,50,50,1)" stroke-width="2" fill-opacity="1" fill="#ff9999"></path><g id="SvgjsG1739"><text id="SvgjsText1740" font-family="微软雅黑" text-anchor="middle" font-size="13px" width="215px" fill="#323232" font-weight="700" align="top" anchor="middle" family="微软雅黑" size="13px" weight="700" font-style="" opacity="1" y="-1.95" transform="rotate(0)"><tspan id="SvgjsTspan1741" dy="16" x="117.5"><tspan id="SvgjsTspan1742" style="text-decoration:;">Thread</tspan></tspan></text></g></g><g id="SvgjsG1743"><path id="SvgjsPath1744" d="M1152.3566389083862 383.69485008716583C 1176.3944780313495 392.4439080240041 1170.8349016980062 430.0477970838547 1196.4154357910156 430.0477970838547" stroke="#323232" stroke-width="2" fill="none" marker-end="url(#SvgjsMarker1745)"></path></g><g id="SvgjsG1747"><path id="SvgjsPath1748" d="M1156.4154357910156 475.91177093982697C 1180.7580045884497 475.91177093982697 1172.0728669935816 430.0477970838547 1196.4154357910156 430.0477970838547" stroke="#323232" stroke-width="2" fill="none" marker-end="url(#SvgjsMarker1749)"></path></g><g id="SvgjsG1751" transform="translate(1203.4154357910156,394.606626868248)"><path id="SvgjsPath1752" d="M 0 24.458820576667787L 190.94118094444275 24.458820576667787L 190.94118094444275 0L 228 37.05881905555725L 190.94118094444275 74.1176381111145L 190.94118094444275 49.65881753444672L 0 49.65881753444672L 0 24.458820576667787Z" stroke="rgba(50,50,50,1)" stroke-width="2" fill-opacity="1" fill="#ffffff"></path><g id="SvgjsG1753"><text id="SvgjsText1754" font-family="微软雅黑" text-anchor="start" font-size="13px" width="228px" fill="#323232" font-weight="700" align="middle" anchor="start" family="微软雅黑" size="13px" weight="700" font-style="" opacity="1" y="27.60881905555725" transform="rotate(0)"><tspan id="SvgjsTspan1755" dy="16" x="0"><tspan id="SvgjsTspan1756" style="text-decoration:;"> </tspan></tspan></text></g></g><g id="SvgjsG1757" transform="translate(1287.4154357910156,419.66544592380524)"><path id="SvgjsPath1758" d="M 0 0L 37 0L 53 16L 53 24L 0 24L 0 0Z" stroke="none" fill-opacity="1" fill="#ffffaa"></path><path id="SvgjsPath1759" d="M 37 0L 37 16L 53 16Z" stroke="none" fill-opacity="1" fill="#cdcdcd"></path><path id="SvgjsPath1760" d="M 0 0L 37 0L 53 16L 53 24L 0 24L 0 0Z" stroke="none" fill="none"></path><g id="SvgjsG1761"><text id="SvgjsText1762" font-family="微软雅黑" text-anchor="middle" font-size="13px" width="33px" fill="#323232" font-weight="700" align="middle" anchor="middle" family="微软雅黑" size="13px" weight="700" font-style="" opacity="1" y="2.55" transform="rotate(0)"><tspan id="SvgjsTspan1763" dy="16" x="26.5"><tspan id="SvgjsTspan1764" style="text-decoration:;">DB</tspan></tspan></text></g></g><g id="SvgjsG1765" transform="translate(1211.3566389083862,299.1654351949692)"><path id="SvgjsPath1766" d="M 0 0L 290.0587968826294 0L 306.0587968826294 16L 306.0587968826294 61L 0 61L 0 0Z" stroke="none" fill-opacity="1" fill="#ffffaa"></path><path id="SvgjsPath1767" d="M 290.0587968826294 0L 290.0587968826294 16L 306.0587968826294 16Z" stroke="none" fill-opacity="1" fill="#cdcdcd"></path><path id="SvgjsPath1768" d="M 0 0L 290.0587968826294 0L 306.0587968826294 16L 306.0587968826294 61L 0 61L 0 0Z" stroke="none" fill="none"></path><g id="SvgjsG1769"><text id="SvgjsText1770" font-family="微软雅黑" text-anchor="start" font-size="13px" width="287px" fill="#323232" font-weight="700" align="top" anchor="start" family="微软雅黑" size="13px" weight="700" font-style="" opacity="1" y="8.05" transform="rotate(0)"><tspan id="SvgjsTspan1771" dy="16" x="10"><tspan id="SvgjsTspan1772" style="text-decoration:;">如果采用多线程处理，A、B 对于 DB 的操作一起</tspan></tspan><tspan id="SvgjsTspan1773" dy="16" x="10"><tspan id="SvgjsTspan1774" style="text-decoration:;">放到一个事物中去，如果事务回滚，那么 offset </tspan></tspan><tspan id="SvgjsTspan1775" dy="16" x="10"><tspan id="SvgjsTspan1776" style="text-decoration:;">不进行更新，防止消息的丢失和重复消费。</tspan></tspan></text></g></g><g id="SvgjsG1777"><path id="SvgjsPath1778" d="M1431.4154357910156 431.66544592380524C 1795.944839477539 461.51837623119354 429.7095603942871 24.988970637321472 427.7683868408203 341.22426879405975" stroke="#323232" stroke-width="2" fill="none" marker-end="url(#SvgjsMarker1779)"></path><rect id="SvgjsRect1781" width="82" height="15" x="1026.0183777809143" y="271.55146941542625" fill="#ffffff"></rect><text id="SvgjsText1782" font-family="微软雅黑" text-anchor="middle" font-size="13px" width="82px" fill="#323232" font-weight="700" align="top" anchor="middle" family="微软雅黑" size="13px" weight="700" font-style="" opacity="1" y="269.60146941542627" transform="rotate(0)"><tspan id="SvgjsTspan1783" dy="16" x="1067.0183777809143"><tspan id="SvgjsTspan1784" style="text-decoration:;">update offset</tspan></tspan></text></g></svg>