<svg id="SvgjsSvg1006" width="1277.5109405517578" height="398.4926452636719" xmlns="http://www.w3.org/2000/svg" version="1.1" xmlns:xlink="http://www.w3.org/1999/xlink" xmlns:svgjs="http://svgjs.com/svgjs"><defs id="SvgjsDefs1007"><marker id="SvgjsMarker1082" markerWidth="16" markerHeight="12" refX="16" refY="6" viewBox="0 0 16 12" orient="auto" markerUnits="userSpaceOnUse" stroke-dasharray="0,0"><path id="SvgjsPath1083" d="M0,2 L14,6 L0,11 L0,2" fill="#323232" stroke="#323232" stroke-width="2"></path></marker><marker id="SvgjsMarker1086" markerWidth="16" markerHeight="12" refX="16" refY="6" viewBox="0 0 16 12" orient="auto" markerUnits="userSpaceOnUse" stroke-dasharray="0,0"><path id="SvgjsPath1087" d="M0,2 L14,6 L0,11 L0,2" fill="#323232" stroke="#323232" stroke-width="2"></path></marker><marker id="SvgjsMarker1090" markerWidth="16" markerHeight="12" refX="16" refY="6" viewBox="0 0 16 12" orient="auto" markerUnits="userSpaceOnUse" stroke-dasharray="0,0"><path id="SvgjsPath1091" d="M0,2 L14,6 L0,11 L0,2" fill="#323232" stroke="#323232" stroke-width="2"></path></marker><marker id="SvgjsMarker1094" markerWidth="16" markerHeight="12" refX="16" refY="6" viewBox="0 0 16 12" orient="auto" markerUnits="userSpaceOnUse" stroke-dasharray="0,0"><path id="SvgjsPath1095" d="M0,2 L14,6 L0,11 L0,2" fill="#323232" stroke="#323232" stroke-width="2"></path></marker><marker id="SvgjsMarker1098" markerWidth="16" markerHeight="12" refX="16" refY="6" viewBox="0 0 16 12" orient="auto" markerUnits="userSpaceOnUse" stroke-dasharray="0,0"><path id="SvgjsPath1099" d="M0,2 L14,6 L0,11 L0,2" fill="#323232" stroke="#323232" stroke-width="2"></path></marker><marker id="SvgjsMarker1102" markerWidth="16" markerHeight="12" refX="16" refY="6" viewBox="0 0 16 12" orient="auto" markerUnits="userSpaceOnUse" stroke-dasharray="0,0"><path id="SvgjsPath1103" d="M0,2 L14,6 L0,11 L0,2" fill="#323232" stroke="#323232" stroke-width="2"></path></marker></defs><g id="SvgjsG1008" transform="translate(476.0147247314453,52.036781311035156)"><path id="SvgjsPath1009" d="M 0 0L 123 0L 139 16L 139 34L 0 34L 0 0Z" stroke="none" fill-opacity="1" fill="#ccffcc"></path><path id="SvgjsPath1010" d="M 123 0L 123 16L 139 16Z" stroke="none" fill-opacity="1" fill="#cdcdcd"></path><path id="SvgjsPath1011" d="M 0 0L 123 0L 139 16L 139 34L 0 34L 0 0Z" stroke="none" fill="none"></path><g id="SvgjsG1012"><text id="SvgjsText1013" font-family="微软雅黑" text-anchor="middle" font-size="13px" width="119px" fill="#323232" font-weight="400" align="middle" anchor="middle" family="微软雅黑" size="13px" weight="400" font-style="" opacity="1" y="7.55" transform="rotate(0)"><tspan id="SvgjsTspan1014" dy="16" x="69.5"><tspan id="SvgjsTspan1015" style="text-decoration:;">SNAT</tspan></tspan></text></g></g><g id="SvgjsG1016" transform="translate(510.5147247314453,165.03678131103516)"><path id="SvgjsPath1017" d="M 0 35C 0 -11.666666666666666 70 -11.666666666666666 70 35C 70 81.66666666666667 0 81.66666666666667 0 35Z" stroke="rgba(50,50,50,1)" stroke-width="2" fill-opacity="1" fill="#ffffff"></path><g id="SvgjsG1018"><text id="SvgjsText1019" font-family="微软雅黑" text-anchor="middle" font-size="13px" width="50px" fill="#323232" font-weight="400" align="middle" anchor="middle" family="微软雅黑" size="13px" weight="400" font-style="" opacity="1" y="25.55" transform="rotate(0)"><tspan id="SvgjsTspan1020" dy="16" x="35"><tspan id="SvgjsTspan1021" style="text-decoration:;">路由器</tspan></tspan></text></g></g><g id="SvgjsG1022" transform="translate(37.51472473144531,236.27207946777344)"><path id="SvgjsPath1023" d="M 0 0L 100 0L 100 49L 0 49Z" stroke="rgba(50,50,50,1)" stroke-width="2" fill-opacity="1" fill="#ffffff"></path><g id="SvgjsG1024"><text id="SvgjsText1025" font-family="微软雅黑" text-anchor="middle" font-size="13px" width="80px" fill="#323232" font-weight="400" align="middle" anchor="middle" family="微软雅黑" size="13px" weight="400" font-style="" opacity="1" y="15.05" transform="rotate(0)"><tspan id="SvgjsTspan1026" dy="16" x="50"><tspan id="SvgjsTspan1027" style="text-decoration:;">User</tspan></tspan></text></g></g><g id="SvgjsG1028" transform="translate(57.51472473144531,256.27207946777344)"><path id="SvgjsPath1029" d="M 0 0L 100 0L 100 49L 0 49Z" stroke="rgba(50,50,50,1)" stroke-width="2" fill-opacity="1" fill="#ffffff"></path><g id="SvgjsG1030"><text id="SvgjsText1031" font-family="微软雅黑" text-anchor="middle" font-size="13px" width="80px" fill="#323232" font-weight="400" align="middle" anchor="middle" family="微软雅黑" size="13px" weight="400" font-style="" opacity="1" y="15.05" transform="rotate(0)"><tspan id="SvgjsTspan1032" dy="16" x="50"><tspan id="SvgjsTspan1033" style="text-decoration:;">User</tspan></tspan></text></g></g><g id="SvgjsG1034" transform="translate(77.51472473144531,276.27207946777344)"><path id="SvgjsPath1035" d="M 0 0L 100 0L 100 49L 0 49Z" stroke="rgba(50,50,50,1)" stroke-width="2" fill-opacity="1" fill="#ffffff"></path><g id="SvgjsG1036"><text id="SvgjsText1037" font-family="微软雅黑" text-anchor="middle" font-size="13px" width="80px" fill="#323232" font-weight="400" align="middle" anchor="middle" family="微软雅黑" size="13px" weight="400" font-style="" opacity="1" y="15.05" transform="rotate(0)"><tspan id="SvgjsTspan1038" dy="16" x="50"><tspan id="SvgjsTspan1039" style="text-decoration:;">User</tspan></tspan></text></g></g><g id="SvgjsG1040" transform="translate(942.5147247314453,173.03678131103516)"><path id="SvgjsPath1041" d="M 10.799999999999999 49C -9 35 3.6 24.5 8.1 21C 6.300000000000001 3.5 28.8 0 37.8 7C 45 -3.5 67.5 0 67.5 10.5C 85.5 7 92.7 21 85.5 38.5C 91.8 52.5 85.5 70 64.8 63C 60.300000000000004 72.10000000000001 42.3 72.10000000000001 37.8 63C 28.8 70 10.799999999999999 66.5 10.799999999999999 49Z" stroke="rgba(50,50,50,1)" stroke-width="2" fill-opacity="1" fill="#ffffff"></path><g id="SvgjsG1042"><text id="SvgjsText1043" font-family="微软雅黑" text-anchor="middle" font-size="13px" width="70px" fill="#323232" font-weight="400" align="middle" anchor="middle" family="微软雅黑" size="13px" weight="400" font-style="" opacity="1" y="25.55" transform="rotate(0)"><tspan id="SvgjsTspan1044" dy="16" x="45"><tspan id="SvgjsTspan1045" style="text-decoration:;">运营商</tspan></tspan></text></g></g><g id="SvgjsG1046" transform="translate(1153.5147247314453,196.27207946777344)"><path id="SvgjsPath1047" d="M 0 4Q 0 0 4 0L 95 0Q 99 0 99 4L 99 69Q 99 73 95 73L 4 73Q 0 73 0 69Z" stroke="rgba(50,50,50,1)" stroke-width="2" fill-opacity="1" fill="#ffffff"></path><g id="SvgjsG1048"><text id="SvgjsText1049" font-family="微软雅黑" text-anchor="middle" font-size="13px" width="79px" fill="#323232" font-weight="400" align="middle" anchor="middle" family="微软雅黑" size="13px" weight="400" font-style="" opacity="1" y="27.05" transform="rotate(0)"><tspan id="SvgjsTspan1050" dy="16" x="49.5"><tspan id="SvgjsTspan1051" style="text-decoration:;">Server</tspan></tspan></text></g></g><g id="SvgjsG1052" transform="translate(25.014724731445312,215.27207946777344)"><path id="SvgjsPath1053" d="M 6.51 0L 118.49 0L 125 15.5L 118.49 31L 6.51 31L 0 15.5L 6.51 0Z" stroke="rgba(50,50,50,1)" stroke-width="2" fill-opacity="1" fill="#ffe6cc"></path><g id="SvgjsG1054"><text id="SvgjsText1055" font-family="微软雅黑" text-anchor="middle" font-size="13px" width="105px" fill="#323232" font-weight="400" align="middle" anchor="middle" family="微软雅黑" size="13px" weight="400" font-style="" opacity="1" y="6.05" transform="rotate(0)"><tspan id="SvgjsTspan1056" dy="16" x="62.5"><tspan id="SvgjsTspan1057" style="text-decoration:;">192.168.0.2:1234</tspan></tspan></text></g></g><g id="SvgjsG1058" transform="translate(423.5147247314453,180.27207946777344)"><path id="SvgjsPath1059" d="M 7.35 0L 89.65 0L 97 17.5L 89.65 35L 7.35 35L 0 17.5L 7.35 0Z" stroke="rgba(50,50,50,1)" stroke-width="2" fill-opacity="1" fill="#ffe6cc"></path><g id="SvgjsG1060"><text id="SvgjsText1061" font-family="微软雅黑" text-anchor="middle" font-size="13px" width="77px" fill="#323232" font-weight="400" align="middle" anchor="middle" family="微软雅黑" size="13px" weight="400" font-style="" opacity="1" y="8.05" transform="rotate(0)"><tspan id="SvgjsTspan1062" dy="16" x="48.5"><tspan id="SvgjsTspan1063" style="text-decoration:;">192.168.0.1</tspan></tspan></text></g></g><g id="SvgjsG1064" transform="translate(570.5147247314453,180.27207946777344)"><path id="SvgjsPath1065" d="M 7.35 0L 89.65 0L 97 17.5L 89.65 35L 7.35 35L 0 17.5L 7.35 0Z" stroke="rgba(50,50,50,1)" stroke-width="2" fill-opacity="1" fill="#cce5ff"></path><g id="SvgjsG1066"><text id="SvgjsText1067" font-family="微软雅黑" text-anchor="middle" font-size="13px" width="77px" fill="#323232" font-weight="400" align="middle" anchor="middle" family="微软雅黑" size="13px" weight="400" font-style="" opacity="1" y="8.05" transform="rotate(0)"><tspan id="SvgjsTspan1068" dy="16" x="48.5"><tspan id="SvgjsTspan1069" style="text-decoration:;">6.6.6.6</tspan></tspan></text></g></g><g id="SvgjsG1070" transform="translate(439.5147247314453,238.27207946777344)"><path id="SvgjsPath1071" d="M 0 0L 220 0L 220 54.23529052734375L 0 54.23529052734375Z" stroke="rgba(50,50,50,1)" stroke-width="2" fill-opacity="1" fill="#ffffff"></path><g id="SvgjsG1072"><text id="SvgjsText1073" font-family="微软雅黑" text-anchor="middle" font-size="13px" width="200px" fill="#323232" font-weight="400" align="top" anchor="middle" family="微软雅黑" size="13px" weight="400" font-style="" opacity="1" y="-1.95" transform="rotate(0)"><tspan id="SvgjsTspan1074" dy="16" x="110"><tspan id="SvgjsTspan1075" style="text-decoration:;font-weight: bold;">Map</tspan></tspan><tspan id="SvgjsTspan1076" dy="16" x="110"><tspan id="SvgjsTspan1077" style="text-decoration:;">192.168.0.2:1234 - 6.6.6.6:2314</tspan></tspan><tspan id="SvgjsTspan1078" dy="16" x="110"><tspan id="SvgjsTspan1079" style="text-decoration:;">...</tspan></tspan></text></g></g><g id="SvgjsG1080"><path id="SvgjsPath1081" d="M87.51472473144531 215.27207946777344C 87.51472473144537 60.83620280694049 472.0147247314453 25.83620280694049 472.0147247314453 180.27207946777344" stroke="#323232" stroke-width="2" fill="none" marker-end="url(#SvgjsMarker1082)"></path></g><g id="SvgjsG1084"><path id="SvgjsPath1085" d="M619.0147247314453 180.27207946777344C 619.0147247314454 29.249453283748977 1022.7395285547752 25.008528164743353 996.5147247314453 173.73678131103514" stroke="#323232" stroke-width="2" fill="none" marker-end="url(#SvgjsMarker1086)"></path></g><g id="SvgjsG1088"><path id="SvgjsPath1089" d="M996.5147247314453 173.73678131103514C 1006.6146712053958 116.4571384942077 1134.0147247314453 162.8735076755184 1134.0147247314453 221.03678131103516" stroke="#323232" stroke-width="2" fill="none" marker-end="url(#SvgjsMarker1090)"></path></g><g id="SvgjsG1092"><path id="SvgjsPath1093" d="M1134.0147247314453 256.03678131103516C 1134.0147247314453 312.3573494899873 998.7233856830521 299.143032724422 993.8147247314453 243.03678131103516" stroke="#323232" stroke-width="2" fill="none" marker-end="url(#SvgjsMarker1094)"></path></g><g id="SvgjsG1096"><path id="SvgjsPath1097" d="M993.8147247314453 243.03678131103516C 1005.2992238628287 374.3052070537657 797.2826944313229 220.65367375762042 667.5147247314453 197.77207946777344" stroke="#323232" stroke-width="2" fill="none" marker-end="url(#SvgjsMarker1098)"></path></g><g id="SvgjsG1100"><path id="SvgjsPath1101" d="M423.5147247314453 197.77207946777344C 314.9953448558789 216.90697406958702 258.5341046070117 249.90697406958702 150.0147247314453 230.77207946777344" stroke="#323232" stroke-width="2" fill="none" marker-end="url(#SvgjsMarker1102)"></path></g><g id="SvgjsG1104" transform="translate(1085.5147247314453,221.03678131103516)"><path id="SvgjsPath1105" d="M 7.35 0L 89.65 0L 97 17.5L 89.65 35L 7.35 35L 0 17.5L 7.35 0Z" stroke="rgba(50,50,50,1)" stroke-width="2" fill-opacity="1" fill="#cce5ff"></path><g id="SvgjsG1106"><text id="SvgjsText1107" font-family="微软雅黑" text-anchor="middle" font-size="13px" width="77px" fill="#323232" font-weight="400" align="middle" anchor="middle" family="微软雅黑" size="13px" weight="400" font-style="" opacity="1" y="8.05" transform="rotate(0)"><tspan id="SvgjsTspan1108" dy="16" x="48.5"><tspan id="SvgjsTspan1109" style="text-decoration:;">7.7.7.7</tspan></tspan></text></g></g><g id="SvgjsG1110" transform="translate(198.5147247314453,59.036781311035156)"><path id="SvgjsPath1111" d="M 0 0L 139 0L 155 16L 155 41L 0 41L 0 0Z" stroke="none" fill-opacity="1" fill="#ffffaa"></path><path id="SvgjsPath1112" d="M 139 0L 139 16L 155 16Z" stroke="none" fill-opacity="1" fill="#cdcdcd"></path><path id="SvgjsPath1113" d="M 0 0L 139 0L 155 16L 155 41L 0 41L 0 0Z" stroke="none" fill="none"></path><g id="SvgjsG1114"><text id="SvgjsText1115" font-family="微软雅黑" text-anchor="start" font-size="13px" width="135px" fill="#323232" font-weight="400" align="middle" anchor="start" family="微软雅黑" size="13px" weight="400" font-style="" opacity="1" y="3.05" transform="rotate(0)"><tspan id="SvgjsTspan1116" dy="16" x="10"><tspan id="SvgjsTspan1117" style="text-decoration:;">源：192.168.0.2:1234</tspan></tspan><tspan id="SvgjsTspan1118" dy="16" x="10"><tspan id="SvgjsTspan1119" style="text-decoration:;">目标：7.7.7.7:80</tspan></tspan></text></g></g><g id="SvgjsG1120" transform="translate(732.5147247314453,45.036781311035156)"><path id="SvgjsPath1121" d="M 0 0L 139 0L 155 16L 155 41L 0 41L 0 0Z" stroke="none" fill-opacity="1" fill="#ffffaa"></path><path id="SvgjsPath1122" d="M 139 0L 139 16L 155 16Z" stroke="none" fill-opacity="1" fill="#cdcdcd"></path><path id="SvgjsPath1123" d="M 0 0L 139 0L 155 16L 155 41L 0 41L 0 0Z" stroke="none" fill="none"></path><g id="SvgjsG1124"><text id="SvgjsText1125" font-family="微软雅黑" text-anchor="start" font-size="13px" width="135px" fill="#323232" font-weight="400" align="middle" anchor="start" family="微软雅黑" size="13px" weight="400" font-style="" opacity="1" y="3.05" transform="rotate(0)"><tspan id="SvgjsTspan1126" dy="16" x="10"><tspan id="SvgjsTspan1127" style="text-decoration:;">源：6.6.6.6:2314</tspan></tspan><tspan id="SvgjsTspan1128" dy="16" x="10"><tspan id="SvgjsTspan1129" style="text-decoration:;">目标：7.7.7.7:80</tspan></tspan></text></g></g><g id="SvgjsG1130" transform="translate(731.0147247314453,233.03678131103516)"><path id="SvgjsPath1131" d="M 0 0L 142 0L 158 16L 158 32.47058868408203L 0 32.47058868408203L 0 0Z" stroke="none" fill-opacity="1" fill="#ffffaa"></path><path id="SvgjsPath1132" d="M 142 0L 142 16L 158 16Z" stroke="none" fill-opacity="1" fill="#cdcdcd"></path><path id="SvgjsPath1133" d="M 0 0L 142 0L 158 16L 158 32.47058868408203L 0 32.47058868408203L 0 0Z" stroke="none" fill="none"></path><g id="SvgjsG1134"><text id="SvgjsText1135" font-family="微软雅黑" text-anchor="start" font-size="13px" width="138px" fill="#323232" font-weight="400" align="middle" anchor="start" family="微软雅黑" size="13px" weight="400" font-style="" opacity="1" y="-1.2147056579589843" transform="rotate(0)"><tspan id="SvgjsTspan1136" dy="16" x="10"><tspan id="SvgjsTspan1137" style="text-decoration:;">源：7.7.7.7:80</tspan></tspan><tspan id="SvgjsTspan1138" dy="16" x="10"><tspan id="SvgjsTspan1139" style="text-decoration:;">目标：6.6.6.6:2314</tspan></tspan></text></g></g><g id="SvgjsG1140" transform="translate(216.0147247314453,210.56619262695312)"><path id="SvgjsPath1141" d="M 0 0L 142 0L 158 16L 158 32.47058868408203L 0 32.47058868408203L 0 0Z" stroke="none" fill-opacity="1" fill="#ffffaa"></path><path id="SvgjsPath1142" d="M 142 0L 142 16L 158 16Z" stroke="none" fill-opacity="1" fill="#cdcdcd"></path><path id="SvgjsPath1143" d="M 0 0L 142 0L 158 16L 158 32.47058868408203L 0 32.47058868408203L 0 0Z" stroke="none" fill="none"></path><g id="SvgjsG1144"><text id="SvgjsText1145" font-family="微软雅黑" text-anchor="start" font-size="13px" width="138px" fill="#323232" font-weight="400" align="middle" anchor="start" family="微软雅黑" size="13px" weight="400" font-style="" opacity="1" y="-1.2147056579589843" transform="rotate(0)"><tspan id="SvgjsTspan1146" dy="16" x="10"><tspan id="SvgjsTspan1147" style="text-decoration:;">源：7.7.7.7:80</tspan></tspan><tspan id="SvgjsTspan1148" dy="16" x="10"><tspan id="SvgjsTspan1149" style="text-decoration:;">目标：192.168.0.2:1234</tspan></tspan></text></g></g></svg>